<mxfile host="app.diagrams.net" modified="2023-11-26T09:11:58.188Z" agent="Mozilla/5.0 (Windows NT 10.0; Win64; x64) AppleWebKit/537.36 (KHTML, like Gecko) Chrome/119.0.0.0 Safari/537.36" etag="75HeZWt1eXoLqipzkdGq" version="22.1.4" type="device" pages="5">
  <diagram name="Workflow" id="rrY7YYKp8UYqHfs8dElZ">
    <mxGraphModel dx="2261" dy="1951" grid="1" gridSize="10" guides="1" tooltips="1" connect="1" arrows="1" fold="1" page="1" pageScale="1" pageWidth="827" pageHeight="1169" math="0" shadow="0">
      <root>
        <mxCell id="0" />
        <mxCell id="1" parent="0" />
        <mxCell id="YdkGCJ0PSXLlTlFhfTqK-1" value="Khách Hàng" style="shape=umlActor;verticalLabelPosition=bottom;verticalAlign=top;html=1;outlineConnect=0;" parent="1" vertex="1">
          <mxGeometry x="40" y="-61" width="40" height="80" as="geometry" />
        </mxCell>
        <mxCell id="YdkGCJ0PSXLlTlFhfTqK-2" value="" style="endArrow=classic;html=1;rounded=0;exitX=0.5;exitY=0.5;exitDx=0;exitDy=0;exitPerimeter=0;entryX=0;entryY=0.5;entryDx=0;entryDy=0;" parent="1" source="YdkGCJ0PSXLlTlFhfTqK-1" target="YdkGCJ0PSXLlTlFhfTqK-17" edge="1">
          <mxGeometry width="50" height="50" relative="1" as="geometry">
            <mxPoint x="200" y="89" as="sourcePoint" />
            <mxPoint x="130" y="-21" as="targetPoint" />
          </mxGeometry>
        </mxCell>
        <mxCell id="YdkGCJ0PSXLlTlFhfTqK-5" value="" style="endArrow=classic;html=1;rounded=0;entryX=0;entryY=0.5;entryDx=0;entryDy=0;exitX=1;exitY=0.5;exitDx=0;exitDy=0;" parent="1" source="YdkGCJ0PSXLlTlFhfTqK-17" target="YdkGCJ0PSXLlTlFhfTqK-6" edge="1">
          <mxGeometry width="50" height="50" relative="1" as="geometry">
            <mxPoint x="240" y="-21" as="sourcePoint" />
            <mxPoint x="320" y="-21.340000000000003" as="targetPoint" />
          </mxGeometry>
        </mxCell>
        <mxCell id="YdkGCJ0PSXLlTlFhfTqK-6" value="Tài Khoản" style="rhombus;whiteSpace=wrap;html=1;" parent="1" vertex="1">
          <mxGeometry x="324" y="-46" width="90" height="50" as="geometry" />
        </mxCell>
        <mxCell id="YdkGCJ0PSXLlTlFhfTqK-7" value="" style="endArrow=classic;html=1;rounded=0;exitX=0.5;exitY=1;exitDx=0;exitDy=0;entryX=0.5;entryY=0;entryDx=0;entryDy=0;" parent="1" source="YdkGCJ0PSXLlTlFhfTqK-6" target="YdkGCJ0PSXLlTlFhfTqK-37" edge="1">
          <mxGeometry width="50" height="50" relative="1" as="geometry">
            <mxPoint x="368" y="106" as="sourcePoint" />
            <mxPoint x="369" y="360" as="targetPoint" />
          </mxGeometry>
        </mxCell>
        <mxCell id="YdkGCJ0PSXLlTlFhfTqK-9" value="Đúng" style="text;html=1;strokeColor=none;fillColor=none;align=center;verticalAlign=middle;whiteSpace=wrap;rounded=0;" parent="1" vertex="1">
          <mxGeometry x="310" width="58" height="30" as="geometry" />
        </mxCell>
        <mxCell id="YdkGCJ0PSXLlTlFhfTqK-10" value="" style="endArrow=classic;html=1;rounded=0;exitX=1;exitY=0.5;exitDx=0;exitDy=0;entryX=0;entryY=0.5;entryDx=0;entryDy=0;" parent="1" source="YdkGCJ0PSXLlTlFhfTqK-6" target="YdkGCJ0PSXLlTlFhfTqK-18" edge="1">
          <mxGeometry width="50" height="50" relative="1" as="geometry">
            <mxPoint x="340" y="39" as="sourcePoint" />
            <mxPoint x="480" y="-21" as="targetPoint" />
          </mxGeometry>
        </mxCell>
        <mxCell id="YdkGCJ0PSXLlTlFhfTqK-12" value="" style="endArrow=classic;html=1;rounded=0;exitX=0.5;exitY=0;exitDx=0;exitDy=0;entryX=0.5;entryY=0;entryDx=0;entryDy=0;" parent="1" source="YdkGCJ0PSXLlTlFhfTqK-18" target="YdkGCJ0PSXLlTlFhfTqK-17" edge="1">
          <mxGeometry width="50" height="50" relative="1" as="geometry">
            <mxPoint x="520" y="-51" as="sourcePoint" />
            <mxPoint x="200" y="-51" as="targetPoint" />
            <Array as="points">
              <mxPoint x="540" y="-91" />
              <mxPoint x="180" y="-91" />
            </Array>
          </mxGeometry>
        </mxCell>
        <mxCell id="YdkGCJ0PSXLlTlFhfTqK-13" value="Sai" style="text;html=1;strokeColor=none;fillColor=none;align=center;verticalAlign=middle;whiteSpace=wrap;rounded=0;" parent="1" vertex="1">
          <mxGeometry x="421" y="-39" width="44" height="20" as="geometry" />
        </mxCell>
        <mxCell id="YdkGCJ0PSXLlTlFhfTqK-15" value="" style="endArrow=classic;html=1;rounded=0;entryX=0;entryY=0.5;entryDx=0;entryDy=0;" parent="1" target="YdkGCJ0PSXLlTlFhfTqK-16" edge="1">
          <mxGeometry width="50" height="50" relative="1" as="geometry">
            <mxPoint x="368" y="80" as="sourcePoint" />
            <mxPoint x="478" y="77" as="targetPoint" />
          </mxGeometry>
        </mxCell>
        <mxCell id="YdkGCJ0PSXLlTlFhfTqK-16" value="Xem Sản Phẩm" style="rounded=1;whiteSpace=wrap;html=1;" parent="1" vertex="1">
          <mxGeometry x="478" y="60" width="120" height="40" as="geometry" />
        </mxCell>
        <mxCell id="YdkGCJ0PSXLlTlFhfTqK-17" value="Đăng Nhập" style="rounded=1;whiteSpace=wrap;html=1;" parent="1" vertex="1">
          <mxGeometry x="120" y="-41" width="120" height="40" as="geometry" />
        </mxCell>
        <mxCell id="YdkGCJ0PSXLlTlFhfTqK-18" value="Đăng Ký" style="rounded=1;whiteSpace=wrap;html=1;" parent="1" vertex="1">
          <mxGeometry x="480" y="-41" width="120" height="40" as="geometry" />
        </mxCell>
        <mxCell id="YdkGCJ0PSXLlTlFhfTqK-19" value="" style="endArrow=classic;html=1;rounded=0;entryX=0;entryY=0.5;entryDx=0;entryDy=0;" parent="1" target="YdkGCJ0PSXLlTlFhfTqK-20" edge="1">
          <mxGeometry width="50" height="50" relative="1" as="geometry">
            <mxPoint x="370" y="180" as="sourcePoint" />
            <mxPoint x="480" y="177" as="targetPoint" />
          </mxGeometry>
        </mxCell>
        <mxCell id="YdkGCJ0PSXLlTlFhfTqK-20" value="Tìm Kiếm Sản Phẩm" style="rounded=1;whiteSpace=wrap;html=1;" parent="1" vertex="1">
          <mxGeometry x="480" y="160" width="120" height="40" as="geometry" />
        </mxCell>
        <mxCell id="YdkGCJ0PSXLlTlFhfTqK-21" value="" style="endArrow=classic;html=1;rounded=0;exitX=1;exitY=0.5;exitDx=0;exitDy=0;entryX=0;entryY=0.5;entryDx=0;entryDy=0;" parent="1" source="YdkGCJ0PSXLlTlFhfTqK-16" target="YdkGCJ0PSXLlTlFhfTqK-22" edge="1">
          <mxGeometry width="50" height="50" relative="1" as="geometry">
            <mxPoint x="380" y="190" as="sourcePoint" />
            <mxPoint x="640.9142717633929" y="110" as="targetPoint" />
          </mxGeometry>
        </mxCell>
        <mxCell id="YdkGCJ0PSXLlTlFhfTqK-22" value="Thông Tin Sản Phẩm" style="rounded=1;whiteSpace=wrap;html=1;" parent="1" vertex="1">
          <mxGeometry x="680" y="-21" width="120" height="40" as="geometry" />
        </mxCell>
        <mxCell id="YdkGCJ0PSXLlTlFhfTqK-23" value="Phân Loại Sản Phẩm" style="rounded=1;whiteSpace=wrap;html=1;" parent="1" vertex="1">
          <mxGeometry x="680" y="30" width="120" height="40" as="geometry" />
        </mxCell>
        <mxCell id="YdkGCJ0PSXLlTlFhfTqK-24" value="Giá" style="rounded=1;whiteSpace=wrap;html=1;" parent="1" vertex="1">
          <mxGeometry x="680" y="80" width="120" height="40" as="geometry" />
        </mxCell>
        <mxCell id="YdkGCJ0PSXLlTlFhfTqK-25" value="Hình Ảnh" style="rounded=1;whiteSpace=wrap;html=1;" parent="1" vertex="1">
          <mxGeometry x="680" y="130" width="120" height="40" as="geometry" />
        </mxCell>
        <mxCell id="YdkGCJ0PSXLlTlFhfTqK-26" value="" style="endArrow=classic;html=1;rounded=0;exitX=1;exitY=0.5;exitDx=0;exitDy=0;entryX=0;entryY=0.5;entryDx=0;entryDy=0;" parent="1" source="YdkGCJ0PSXLlTlFhfTqK-16" target="YdkGCJ0PSXLlTlFhfTqK-23" edge="1">
          <mxGeometry width="50" height="50" relative="1" as="geometry">
            <mxPoint x="608" y="90" as="sourcePoint" />
            <mxPoint x="690" y="9" as="targetPoint" />
          </mxGeometry>
        </mxCell>
        <mxCell id="YdkGCJ0PSXLlTlFhfTqK-27" value="" style="endArrow=classic;html=1;rounded=0;entryX=0;entryY=0.5;entryDx=0;entryDy=0;exitX=1;exitY=0.5;exitDx=0;exitDy=0;" parent="1" source="YdkGCJ0PSXLlTlFhfTqK-16" target="YdkGCJ0PSXLlTlFhfTqK-24" edge="1">
          <mxGeometry width="50" height="50" relative="1" as="geometry">
            <mxPoint x="600" y="90" as="sourcePoint" />
            <mxPoint x="690" y="60" as="targetPoint" />
          </mxGeometry>
        </mxCell>
        <mxCell id="YdkGCJ0PSXLlTlFhfTqK-28" value="" style="endArrow=classic;html=1;rounded=0;exitX=1;exitY=0.5;exitDx=0;exitDy=0;entryX=0;entryY=0.5;entryDx=0;entryDy=0;" parent="1" source="YdkGCJ0PSXLlTlFhfTqK-16" target="YdkGCJ0PSXLlTlFhfTqK-25" edge="1">
          <mxGeometry width="50" height="50" relative="1" as="geometry">
            <mxPoint x="618" y="100" as="sourcePoint" />
            <mxPoint x="700" y="70" as="targetPoint" />
          </mxGeometry>
        </mxCell>
        <mxCell id="YdkGCJ0PSXLlTlFhfTqK-29" value="" style="endArrow=classic;html=1;rounded=0;entryX=0;entryY=0.5;entryDx=0;entryDy=0;" parent="1" target="YdkGCJ0PSXLlTlFhfTqK-30" edge="1">
          <mxGeometry width="50" height="50" relative="1" as="geometry">
            <mxPoint x="370" y="280" as="sourcePoint" />
            <mxPoint x="480" y="277" as="targetPoint" />
          </mxGeometry>
        </mxCell>
        <mxCell id="YdkGCJ0PSXLlTlFhfTqK-30" value="Quản Lý Giỏ Hàng" style="rounded=1;whiteSpace=wrap;html=1;" parent="1" vertex="1">
          <mxGeometry x="480" y="260" width="120" height="40" as="geometry" />
        </mxCell>
        <mxCell id="YdkGCJ0PSXLlTlFhfTqK-31" value="" style="endArrow=classic;html=1;rounded=0;entryX=0;entryY=0.5;entryDx=0;entryDy=0;exitX=1;exitY=0.5;exitDx=0;exitDy=0;" parent="1" source="YdkGCJ0PSXLlTlFhfTqK-30" target="YdkGCJ0PSXLlTlFhfTqK-36" edge="1">
          <mxGeometry width="50" height="50" relative="1" as="geometry">
            <mxPoint x="600" y="291" as="sourcePoint" />
            <mxPoint x="692" y="271" as="targetPoint" />
          </mxGeometry>
        </mxCell>
        <mxCell id="YdkGCJ0PSXLlTlFhfTqK-32" value="" style="endArrow=classic;html=1;rounded=0;exitX=1;exitY=0.5;exitDx=0;exitDy=0;entryX=0;entryY=0.5;entryDx=0;entryDy=0;" parent="1" source="YdkGCJ0PSXLlTlFhfTqK-30" target="YdkGCJ0PSXLlTlFhfTqK-35" edge="1">
          <mxGeometry width="50" height="50" relative="1" as="geometry">
            <mxPoint x="600" y="291" as="sourcePoint" />
            <mxPoint x="692" y="220" as="targetPoint" />
          </mxGeometry>
        </mxCell>
        <mxCell id="YdkGCJ0PSXLlTlFhfTqK-33" value="" style="endArrow=classic;html=1;rounded=0;exitX=1;exitY=0.5;exitDx=0;exitDy=0;entryX=0;entryY=0.5;entryDx=0;entryDy=0;" parent="1" source="YdkGCJ0PSXLlTlFhfTqK-30" target="YdkGCJ0PSXLlTlFhfTqK-34" edge="1">
          <mxGeometry width="50" height="50" relative="1" as="geometry">
            <mxPoint x="600" y="291" as="sourcePoint" />
            <mxPoint x="642.9142717633929" y="321" as="targetPoint" />
          </mxGeometry>
        </mxCell>
        <mxCell id="YdkGCJ0PSXLlTlFhfTqK-34" value="Thêm Sản Phẩm&lt;br&gt;Vào Giỏ Hàng" style="rounded=1;whiteSpace=wrap;html=1;" parent="1" vertex="1">
          <mxGeometry x="681" y="200" width="120" height="40" as="geometry" />
        </mxCell>
        <mxCell id="YdkGCJ0PSXLlTlFhfTqK-35" value="Chỉnh Sửa Số Lượng Sản Phẩm Trong Giỏ" style="rounded=1;whiteSpace=wrap;html=1;" parent="1" vertex="1">
          <mxGeometry x="681" y="260" width="120" height="40" as="geometry" />
        </mxCell>
        <mxCell id="YdkGCJ0PSXLlTlFhfTqK-36" value="Xóa Sản Phẩm Khỏi Giỏ Hàng" style="rounded=1;whiteSpace=wrap;html=1;" parent="1" vertex="1">
          <mxGeometry x="681" y="320" width="120" height="40" as="geometry" />
        </mxCell>
        <mxCell id="YdkGCJ0PSXLlTlFhfTqK-37" value="Chọn Sản Phẩm Muốn Mua Trong Giỏ" style="rounded=1;whiteSpace=wrap;html=1;" parent="1" vertex="1">
          <mxGeometry x="309" y="360" width="120" height="40" as="geometry" />
        </mxCell>
        <mxCell id="YdkGCJ0PSXLlTlFhfTqK-38" value="" style="endArrow=classic;html=1;rounded=0;exitX=0;exitY=0.5;exitDx=0;exitDy=0;entryX=1;entryY=0.5;entryDx=0;entryDy=0;" parent="1" source="YdkGCJ0PSXLlTlFhfTqK-37" target="YdkGCJ0PSXLlTlFhfTqK-39" edge="1">
          <mxGeometry width="50" height="50" relative="1" as="geometry">
            <mxPoint x="300" y="280" as="sourcePoint" />
            <mxPoint x="200" y="380" as="targetPoint" />
          </mxGeometry>
        </mxCell>
        <mxCell id="YdkGCJ0PSXLlTlFhfTqK-39" value="Điền Thông Tin &lt;br&gt;Nhận Hàng" style="rounded=1;whiteSpace=wrap;html=1;" parent="1" vertex="1">
          <mxGeometry x="105" y="360" width="120" height="40" as="geometry" />
        </mxCell>
        <mxCell id="YdkGCJ0PSXLlTlFhfTqK-44" value="" style="endArrow=classic;html=1;rounded=0;exitX=0;exitY=0.5;exitDx=0;exitDy=0;entryX=1;entryY=0.5;entryDx=0;entryDy=0;" parent="1" source="YdkGCJ0PSXLlTlFhfTqK-39" target="YdkGCJ0PSXLlTlFhfTqK-52" edge="1">
          <mxGeometry width="50" height="50" relative="1" as="geometry">
            <mxPoint x="100" y="290" as="sourcePoint" />
            <mxPoint x="30" y="380" as="targetPoint" />
          </mxGeometry>
        </mxCell>
        <mxCell id="YdkGCJ0PSXLlTlFhfTqK-46" value="" style="endArrow=classic;html=1;rounded=0;exitX=0;exitY=0.5;exitDx=0;exitDy=0;entryX=1;entryY=0.5;entryDx=0;entryDy=0;" parent="1" source="YdkGCJ0PSXLlTlFhfTqK-52" target="YdkGCJ0PSXLlTlFhfTqK-53" edge="1">
          <mxGeometry width="50" height="50" relative="1" as="geometry">
            <mxPoint x="-90" y="380" as="sourcePoint" />
            <mxPoint x="-180" y="380" as="targetPoint" />
          </mxGeometry>
        </mxCell>
        <mxCell id="YdkGCJ0PSXLlTlFhfTqK-49" value="" style="endArrow=classic;html=1;rounded=0;exitX=0;exitY=0.5;exitDx=0;exitDy=0;entryX=1;entryY=0.5;entryDx=0;entryDy=0;" parent="1" source="YdkGCJ0PSXLlTlFhfTqK-53" target="YdkGCJ0PSXLlTlFhfTqK-51" edge="1">
          <mxGeometry width="50" height="50" relative="1" as="geometry">
            <mxPoint x="-300" y="380" as="sourcePoint" />
            <mxPoint x="-400" y="380" as="targetPoint" />
          </mxGeometry>
        </mxCell>
        <mxCell id="YdkGCJ0PSXLlTlFhfTqK-51" value="Đặt Đơn Hàng" style="rounded=1;whiteSpace=wrap;html=1;" parent="1" vertex="1">
          <mxGeometry x="-520" y="360" width="120" height="40" as="geometry" />
        </mxCell>
        <mxCell id="YdkGCJ0PSXLlTlFhfTqK-52" value="Điền Thông Tin &lt;br&gt;Nhận Hàng" style="rounded=1;whiteSpace=wrap;html=1;" parent="1" vertex="1">
          <mxGeometry x="-90" y="360" width="120" height="40" as="geometry" />
        </mxCell>
        <mxCell id="YdkGCJ0PSXLlTlFhfTqK-53" value="Chọn Hình Thức Nhận Hàng" style="rounded=1;whiteSpace=wrap;html=1;" parent="1" vertex="1">
          <mxGeometry x="-300" y="360" width="120" height="40" as="geometry" />
        </mxCell>
        <mxCell id="YdkGCJ0PSXLlTlFhfTqK-54" value="" style="endArrow=classic;html=1;rounded=0;exitX=0.5;exitY=0;exitDx=0;exitDy=0;entryX=0.5;entryY=1;entryDx=0;entryDy=0;" parent="1" source="YdkGCJ0PSXLlTlFhfTqK-51" target="YdkGCJ0PSXLlTlFhfTqK-55" edge="1">
          <mxGeometry width="50" height="50" relative="1" as="geometry">
            <mxPoint x="-220" y="220" as="sourcePoint" />
            <mxPoint x="-460" y="280" as="targetPoint" />
          </mxGeometry>
        </mxCell>
        <mxCell id="YdkGCJ0PSXLlTlFhfTqK-55" value="Kiểm Tra Số Lượng&lt;br&gt;Sản Phẩm Trong Kho&amp;nbsp;" style="rhombus;whiteSpace=wrap;html=1;" parent="1" vertex="1">
          <mxGeometry x="-560" y="200" width="200" height="80" as="geometry" />
        </mxCell>
        <mxCell id="YdkGCJ0PSXLlTlFhfTqK-57" value="" style="endArrow=classic;html=1;rounded=0;exitX=1;exitY=0.5;exitDx=0;exitDy=0;entryX=0;entryY=0.5;entryDx=0;entryDy=0;" parent="1" source="YdkGCJ0PSXLlTlFhfTqK-55" target="YdkGCJ0PSXLlTlFhfTqK-60" edge="1">
          <mxGeometry width="50" height="50" relative="1" as="geometry">
            <mxPoint x="-220" y="210" as="sourcePoint" />
            <mxPoint x="-240" y="240" as="targetPoint" />
          </mxGeometry>
        </mxCell>
        <mxCell id="YdkGCJ0PSXLlTlFhfTqK-60" value="Thông Báo Cho Khách Hàng" style="rounded=1;whiteSpace=wrap;html=1;" parent="1" vertex="1">
          <mxGeometry x="-280" y="220" width="120" height="40" as="geometry" />
        </mxCell>
        <mxCell id="YdkGCJ0PSXLlTlFhfTqK-61" value="" style="endArrow=classic;html=1;rounded=0;exitX=1;exitY=0.5;exitDx=0;exitDy=0;" parent="1" source="YdkGCJ0PSXLlTlFhfTqK-60" edge="1">
          <mxGeometry width="50" height="50" relative="1" as="geometry">
            <mxPoint x="-110" y="240" as="sourcePoint" />
            <mxPoint x="60" y="40" as="targetPoint" />
            <Array as="points">
              <mxPoint x="60" y="240" />
            </Array>
          </mxGeometry>
        </mxCell>
        <mxCell id="YdkGCJ0PSXLlTlFhfTqK-63" value="Sai" style="text;html=1;strokeColor=none;fillColor=none;align=center;verticalAlign=middle;whiteSpace=wrap;rounded=0;" parent="1" vertex="1">
          <mxGeometry x="-350" y="215" width="50" height="30" as="geometry" />
        </mxCell>
        <mxCell id="YdkGCJ0PSXLlTlFhfTqK-64" value="" style="endArrow=classic;html=1;rounded=0;exitX=0.5;exitY=0;exitDx=0;exitDy=0;entryX=0.5;entryY=1;entryDx=0;entryDy=0;" parent="1" source="YdkGCJ0PSXLlTlFhfTqK-55" target="YdkGCJ0PSXLlTlFhfTqK-65" edge="1">
          <mxGeometry width="50" height="50" relative="1" as="geometry">
            <mxPoint x="-390" y="280" as="sourcePoint" />
            <mxPoint x="-460" y="140" as="targetPoint" />
          </mxGeometry>
        </mxCell>
        <mxCell id="YdkGCJ0PSXLlTlFhfTqK-65" value="Gửi Email Xác Nhận &lt;br&gt;Đơn Hàng&amp;nbsp;" style="rhombus;whiteSpace=wrap;html=1;" parent="1" vertex="1">
          <mxGeometry x="-560" y="60" width="200" height="80" as="geometry" />
        </mxCell>
        <mxCell id="YdkGCJ0PSXLlTlFhfTqK-66" value="" style="endArrow=classic;html=1;rounded=0;exitX=1;exitY=0.5;exitDx=0;exitDy=0;entryX=0.5;entryY=0;entryDx=0;entryDy=0;" parent="1" source="YdkGCJ0PSXLlTlFhfTqK-65" target="YdkGCJ0PSXLlTlFhfTqK-60" edge="1">
          <mxGeometry width="50" height="50" relative="1" as="geometry">
            <mxPoint x="-310" y="65" as="sourcePoint" />
            <mxPoint x="-280" y="100" as="targetPoint" />
            <Array as="points">
              <mxPoint x="-220" y="100" />
            </Array>
          </mxGeometry>
        </mxCell>
        <mxCell id="YdkGCJ0PSXLlTlFhfTqK-67" value="Sai" style="text;html=1;strokeColor=none;fillColor=none;align=center;verticalAlign=middle;whiteSpace=wrap;rounded=0;" parent="1" vertex="1">
          <mxGeometry x="-349" y="76" width="50" height="30" as="geometry" />
        </mxCell>
        <mxCell id="YdkGCJ0PSXLlTlFhfTqK-68" value="Đúng" style="text;html=1;strokeColor=none;fillColor=none;align=center;verticalAlign=middle;whiteSpace=wrap;rounded=0;" parent="1" vertex="1">
          <mxGeometry x="-466" y="160" width="50" height="30" as="geometry" />
        </mxCell>
        <mxCell id="YdkGCJ0PSXLlTlFhfTqK-69" value="" style="endArrow=classic;html=1;rounded=0;exitX=0.5;exitY=0;exitDx=0;exitDy=0;" parent="1" source="YdkGCJ0PSXLlTlFhfTqK-65" edge="1">
          <mxGeometry width="50" height="50" relative="1" as="geometry">
            <mxPoint x="-460" y="41" as="sourcePoint" />
            <mxPoint x="-460" as="targetPoint" />
          </mxGeometry>
        </mxCell>
        <mxCell id="YdkGCJ0PSXLlTlFhfTqK-70" value="Đúng" style="text;html=1;strokeColor=none;fillColor=none;align=center;verticalAlign=middle;whiteSpace=wrap;rounded=0;" parent="1" vertex="1">
          <mxGeometry x="-466" y="19" width="50" height="30" as="geometry" />
        </mxCell>
        <mxCell id="YdkGCJ0PSXLlTlFhfTqK-71" value="Chờ&amp;nbsp;Duyệt &lt;br&gt;Đơn Hàng" style="rounded=1;whiteSpace=wrap;html=1;" parent="1" vertex="1">
          <mxGeometry x="-520" y="-41" width="120" height="40" as="geometry" />
        </mxCell>
        <mxCell id="YdkGCJ0PSXLlTlFhfTqK-72" value="" style="endArrow=classic;html=1;rounded=0;entryX=0;entryY=0.5;entryDx=0;entryDy=0;" parent="1" target="YdkGCJ0PSXLlTlFhfTqK-71" edge="1">
          <mxGeometry width="50" height="50" relative="1" as="geometry">
            <mxPoint x="-720" y="-20" as="sourcePoint" />
            <mxPoint x="-370" y="40" as="targetPoint" />
          </mxGeometry>
        </mxCell>
        <mxCell id="YdkGCJ0PSXLlTlFhfTqK-73" value="Quản Lý" style="shape=umlActor;verticalLabelPosition=bottom;verticalAlign=top;html=1;outlineConnect=0;" parent="1" vertex="1">
          <mxGeometry x="-760" y="-61" width="40" height="60" as="geometry" />
        </mxCell>
        <mxCell id="YdkGCJ0PSXLlTlFhfTqK-74" value="Duyệt Đơn Hàng" style="text;html=1;strokeColor=none;fillColor=none;align=center;verticalAlign=middle;whiteSpace=wrap;rounded=0;" parent="1" vertex="1">
          <mxGeometry x="-670" y="-51" width="100" height="30" as="geometry" />
        </mxCell>
        <mxCell id="YdkGCJ0PSXLlTlFhfTqK-75" value="" style="endArrow=classic;html=1;rounded=0;exitX=0.5;exitY=0;exitDx=0;exitDy=0;entryX=0.5;entryY=1;entryDx=0;entryDy=0;" parent="1" source="YdkGCJ0PSXLlTlFhfTqK-71" target="YdkGCJ0PSXLlTlFhfTqK-76" edge="1">
          <mxGeometry width="50" height="50" relative="1" as="geometry">
            <mxPoint x="-280" y="217" as="sourcePoint" />
            <mxPoint x="-460" y="-110" as="targetPoint" />
          </mxGeometry>
        </mxCell>
        <mxCell id="YdkGCJ0PSXLlTlFhfTqK-76" value="Tạo Đơn Hàng" style="rounded=1;whiteSpace=wrap;html=1;" parent="1" vertex="1">
          <mxGeometry x="-520" y="-150" width="120" height="40" as="geometry" />
        </mxCell>
        <mxCell id="YdkGCJ0PSXLlTlFhfTqK-77" value="" style="endArrow=classic;html=1;rounded=0;exitX=0.5;exitY=0;exitDx=0;exitDy=0;entryX=0.5;entryY=1;entryDx=0;entryDy=0;" parent="1" source="YdkGCJ0PSXLlTlFhfTqK-76" target="YdkGCJ0PSXLlTlFhfTqK-78" edge="1">
          <mxGeometry width="50" height="50" relative="1" as="geometry">
            <mxPoint x="-510" y="80" as="sourcePoint" />
            <mxPoint x="-460" y="-220" as="targetPoint" />
          </mxGeometry>
        </mxCell>
        <mxCell id="YdkGCJ0PSXLlTlFhfTqK-78" value="Lấy Hàng Trong Kho" style="rounded=1;whiteSpace=wrap;html=1;" parent="1" vertex="1">
          <mxGeometry x="-520" y="-260" width="120" height="40" as="geometry" />
        </mxCell>
        <mxCell id="YdkGCJ0PSXLlTlFhfTqK-79" value="" style="endArrow=classic;html=1;rounded=0;exitX=0.5;exitY=0;exitDx=0;exitDy=0;entryX=0.5;entryY=1;entryDx=0;entryDy=0;" parent="1" source="YdkGCJ0PSXLlTlFhfTqK-78" target="YdkGCJ0PSXLlTlFhfTqK-80" edge="1">
          <mxGeometry width="50" height="50" relative="1" as="geometry">
            <mxPoint x="-510" y="-120" as="sourcePoint" />
            <mxPoint x="-460" y="-340" as="targetPoint" />
          </mxGeometry>
        </mxCell>
        <mxCell id="YdkGCJ0PSXLlTlFhfTqK-80" value="Đóng Gói Sản Phẩm Trong Đơn Hàng" style="rounded=1;whiteSpace=wrap;html=1;" parent="1" vertex="1">
          <mxGeometry x="-520" y="-380" width="120" height="40" as="geometry" />
        </mxCell>
        <mxCell id="YdkGCJ0PSXLlTlFhfTqK-81" value="" style="endArrow=classic;html=1;rounded=0;exitX=1;exitY=0.5;exitDx=0;exitDy=0;entryX=0;entryY=0.5;entryDx=0;entryDy=0;" parent="1" source="YdkGCJ0PSXLlTlFhfTqK-80" target="YdkGCJ0PSXLlTlFhfTqK-82" edge="1">
          <mxGeometry width="50" height="50" relative="1" as="geometry">
            <mxPoint x="-260" y="-70" as="sourcePoint" />
            <mxPoint x="-310" y="-360" as="targetPoint" />
          </mxGeometry>
        </mxCell>
        <mxCell id="YdkGCJ0PSXLlTlFhfTqK-82" value="Vận Chuyển Cho Khách Hàng" style="rounded=1;whiteSpace=wrap;html=1;" parent="1" vertex="1">
          <mxGeometry x="-310" y="-380" width="120" height="40" as="geometry" />
        </mxCell>
        <mxCell id="YdkGCJ0PSXLlTlFhfTqK-83" value="" style="endArrow=classic;html=1;rounded=0;exitX=1;exitY=0.5;exitDx=0;exitDy=0;entryX=0;entryY=0.5;entryDx=0;entryDy=0;" parent="1" source="YdkGCJ0PSXLlTlFhfTqK-82" target="YdkGCJ0PSXLlTlFhfTqK-87" edge="1">
          <mxGeometry width="50" height="50" relative="1" as="geometry">
            <mxPoint x="-340" y="-100" as="sourcePoint" />
            <mxPoint x="-100" y="-360" as="targetPoint" />
          </mxGeometry>
        </mxCell>
        <mxCell id="YdkGCJ0PSXLlTlFhfTqK-87" value="Giao Hàng &lt;br&gt;Thành Công" style="rounded=1;whiteSpace=wrap;html=1;" parent="1" vertex="1">
          <mxGeometry x="-100" y="-380" width="120" height="40" as="geometry" />
        </mxCell>
        <mxCell id="YdkGCJ0PSXLlTlFhfTqK-88" value="Xuất Hóa Đơn &lt;br&gt;Điện Tử" style="rounded=1;whiteSpace=wrap;html=1;" parent="1" vertex="1">
          <mxGeometry x="-100" y="-281" width="120" height="40" as="geometry" />
        </mxCell>
        <mxCell id="YdkGCJ0PSXLlTlFhfTqK-89" value="" style="endArrow=classic;html=1;rounded=0;exitX=0.5;exitY=1;exitDx=0;exitDy=0;entryX=0.5;entryY=0;entryDx=0;entryDy=0;" parent="1" source="YdkGCJ0PSXLlTlFhfTqK-87" target="YdkGCJ0PSXLlTlFhfTqK-88" edge="1">
          <mxGeometry width="50" height="50" relative="1" as="geometry">
            <mxPoint x="-70" y="-170" as="sourcePoint" />
            <mxPoint x="-20" y="-220" as="targetPoint" />
          </mxGeometry>
        </mxCell>
        <mxCell id="YdkGCJ0PSXLlTlFhfTqK-92" value="" style="endArrow=classic;html=1;rounded=0;exitX=0.5;exitY=1;exitDx=0;exitDy=0;entryX=0.5;entryY=0;entryDx=0;entryDy=0;" parent="1" source="YdkGCJ0PSXLlTlFhfTqK-88" target="YdkGCJ0PSXLlTlFhfTqK-93" edge="1">
          <mxGeometry width="50" height="50" relative="1" as="geometry">
            <mxPoint x="-50" y="-80" as="sourcePoint" />
            <mxPoint x="-40" y="-180" as="targetPoint" />
          </mxGeometry>
        </mxCell>
        <mxCell id="YdkGCJ0PSXLlTlFhfTqK-93" value="Tích Điểm, Cấp Thẻ Thành Viên" style="rounded=1;whiteSpace=wrap;html=1;" parent="1" vertex="1">
          <mxGeometry x="-100" y="-170" width="120" height="40" as="geometry" />
        </mxCell>
        <mxCell id="YdkGCJ0PSXLlTlFhfTqK-94" value="" style="endArrow=classic;html=1;rounded=0;exitX=0.5;exitY=1;exitDx=0;exitDy=0;" parent="1" target="YdkGCJ0PSXLlTlFhfTqK-1" edge="1">
          <mxGeometry width="50" height="50" relative="1" as="geometry">
            <mxPoint x="-40" y="-120.00000000000023" as="sourcePoint" />
            <mxPoint x="40" y="-8.799999999999955" as="targetPoint" />
            <Array as="points">
              <mxPoint x="-40" y="-20" />
            </Array>
          </mxGeometry>
        </mxCell>
      </root>
    </mxGraphModel>
  </diagram>
  <diagram id="kSA6wWPyvVBWIhFENHyU" name="Use Case">
    <mxGraphModel dx="2389" dy="861" grid="1" gridSize="10" guides="1" tooltips="1" connect="1" arrows="1" fold="1" page="1" pageScale="1" pageWidth="827" pageHeight="1169" math="0" shadow="0">
      <root>
        <mxCell id="0" />
        <mxCell id="1" parent="0" />
        <mxCell id="VI5dOtCWEcdj1Nun_BYY-2" value="Khách Hàng" style="shape=umlActor;verticalLabelPosition=bottom;verticalAlign=top;html=1;outlineConnect=0;labelBackgroundColor=#FF0000;fontColor=#FFFFFF;fontStyle=1" parent="1" vertex="1">
          <mxGeometry x="490" y="410" width="60" height="100" as="geometry" />
        </mxCell>
        <mxCell id="VI5dOtCWEcdj1Nun_BYY-6" value="Đăng Xuất" style="ellipse;whiteSpace=wrap;html=1;" parent="1" vertex="1">
          <mxGeometry x="195" y="210" width="100" height="40" as="geometry" />
        </mxCell>
        <mxCell id="VI5dOtCWEcdj1Nun_BYY-7" value="Xem Sản Phẩm" style="ellipse;whiteSpace=wrap;html=1;" parent="1" vertex="1">
          <mxGeometry x="255" y="331.5" width="100" height="50" as="geometry" />
        </mxCell>
        <mxCell id="-3Dp8ozw6xUo-0P-WiqG-1" value="Thông Tin &lt;br&gt;Sản Phẩm" style="ellipse;whiteSpace=wrap;html=1;" parent="1" vertex="1">
          <mxGeometry x="205" y="260" width="90" height="40" as="geometry" />
        </mxCell>
        <mxCell id="-3Dp8ozw6xUo-0P-WiqG-2" value="Phân Loại &lt;br&gt;Sản Phẩm" style="ellipse;whiteSpace=wrap;html=1;" parent="1" vertex="1">
          <mxGeometry x="92.32" y="260" width="90" height="40" as="geometry" />
        </mxCell>
        <mxCell id="FBeIQ9k9PZCa3juTkjIF-5" value="Tìm Kiếm&lt;br&gt;Sản Phẩm" style="ellipse;whiteSpace=wrap;html=1;" parent="1" vertex="1">
          <mxGeometry x="87.32" y="310" width="90" height="40" as="geometry" />
        </mxCell>
        <mxCell id="U916hh3kJJznK2FT_YiY-1" value="Quản Lý &lt;br&gt;Giỏ Hàng" style="ellipse;whiteSpace=wrap;html=1;" parent="1" vertex="1">
          <mxGeometry x="675" y="460" width="100" height="44.6" as="geometry" />
        </mxCell>
        <mxCell id="U916hh3kJJznK2FT_YiY-3" value="Đặt Hàng" style="ellipse;whiteSpace=wrap;html=1;" parent="1" vertex="1">
          <mxGeometry x="660" y="241.5" width="100" height="38.5" as="geometry" />
        </mxCell>
        <mxCell id="Go1Fh4fUNzz7-yvz6-2v-2" value="Thêm Sản Phẩm&lt;br&gt;Vào Giỏ Hàng" style="ellipse;whiteSpace=wrap;html=1;" parent="1" vertex="1">
          <mxGeometry x="14.999999999999995" y="350" width="100" height="50" as="geometry" />
        </mxCell>
        <mxCell id="Go1Fh4fUNzz7-yvz6-2v-3" value="Xoá sản phẩm khỏi giỏ hàng" style="ellipse;whiteSpace=wrap;html=1;" parent="1" vertex="1">
          <mxGeometry x="871" y="530" width="100" height="40" as="geometry" />
        </mxCell>
        <mxCell id="Go1Fh4fUNzz7-yvz6-2v-4" value="Chỉnh sửa số &lt;br&gt;lượng sản phẩm&amp;nbsp;" style="ellipse;whiteSpace=wrap;html=1;" parent="1" vertex="1">
          <mxGeometry x="861" y="596.5" width="120" height="40" as="geometry" />
        </mxCell>
        <mxCell id="azC_5ZXxrCwsqbuz8Gjd-1" value="Chọn Sản Phẩm Muốn Mua" style="ellipse;whiteSpace=wrap;html=1;" parent="1" vertex="1">
          <mxGeometry x="520" y="195" width="100" height="50" as="geometry" />
        </mxCell>
        <mxCell id="azC_5ZXxrCwsqbuz8Gjd-12" value="" style="endArrow=classic;html=1;rounded=0;dashed=1;exitX=0;exitY=0.5;exitDx=0;exitDy=0;entryX=0.441;entryY=1;entryDx=0;entryDy=0;entryPerimeter=0;" parent="1" source="Go1Fh4fUNzz7-yvz6-2v-4" target="U916hh3kJJznK2FT_YiY-1" edge="1">
          <mxGeometry relative="1" as="geometry">
            <mxPoint x="506" y="634.6" as="sourcePoint" />
            <mxPoint x="597.5" y="494.6" as="targetPoint" />
          </mxGeometry>
        </mxCell>
        <mxCell id="azC_5ZXxrCwsqbuz8Gjd-13" value="&amp;lt;&amp;lt;extend&amp;gt;&amp;gt;" style="edgeLabel;resizable=0;html=1;align=center;verticalAlign=middle;rotation=-15;" parent="azC_5ZXxrCwsqbuz8Gjd-12" connectable="0" vertex="1">
          <mxGeometry relative="1" as="geometry" />
        </mxCell>
        <mxCell id="azC_5ZXxrCwsqbuz8Gjd-15" value="" style="endArrow=classic;html=1;rounded=0;dashed=1;exitX=0;exitY=0.5;exitDx=0;exitDy=0;entryX=0.5;entryY=1;entryDx=0;entryDy=0;" parent="1" source="Go1Fh4fUNzz7-yvz6-2v-3" target="U916hh3kJJznK2FT_YiY-1" edge="1">
          <mxGeometry relative="1" as="geometry">
            <mxPoint x="506" y="634.6" as="sourcePoint" />
            <mxPoint x="567.5" y="704.6" as="targetPoint" />
          </mxGeometry>
        </mxCell>
        <mxCell id="azC_5ZXxrCwsqbuz8Gjd-16" value="&amp;lt;&amp;lt;extend&amp;gt;&amp;gt;" style="edgeLabel;resizable=0;html=1;align=center;verticalAlign=middle;rotation=0;" parent="azC_5ZXxrCwsqbuz8Gjd-15" connectable="0" vertex="1">
          <mxGeometry relative="1" as="geometry" />
        </mxCell>
        <mxCell id="azC_5ZXxrCwsqbuz8Gjd-17" value="" style="endArrow=classic;html=1;rounded=0;dashed=1;exitX=0;exitY=0.5;exitDx=0;exitDy=0;entryX=1;entryY=1;entryDx=0;entryDy=0;" parent="1" source="U916hh3kJJznK2FT_YiY-3" target="azC_5ZXxrCwsqbuz8Gjd-1" edge="1">
          <mxGeometry relative="1" as="geometry">
            <mxPoint x="426.5" y="-158" as="sourcePoint" />
            <mxPoint x="436.5" y="-148" as="targetPoint" />
          </mxGeometry>
        </mxCell>
        <mxCell id="azC_5ZXxrCwsqbuz8Gjd-18" value="&amp;lt;&amp;lt;include&amp;gt;&amp;gt;" style="edgeLabel;resizable=0;html=1;align=center;verticalAlign=middle;rotation=-15;" parent="azC_5ZXxrCwsqbuz8Gjd-17" connectable="0" vertex="1">
          <mxGeometry relative="1" as="geometry" />
        </mxCell>
        <mxCell id="njP6eJEiDt4mryLG6hPA-1" value="" style="endArrow=classic;html=1;rounded=0;dashed=1;exitX=1;exitY=1;exitDx=0;exitDy=0;entryX=0;entryY=0.5;entryDx=0;entryDy=0;" parent="1" source="U916hh3kJJznK2FT_YiY-3" target="njP6eJEiDt4mryLG6hPA-3" edge="1">
          <mxGeometry relative="1" as="geometry">
            <mxPoint x="536.75" y="12" as="sourcePoint" />
            <mxPoint x="476.75" y="12" as="targetPoint" />
          </mxGeometry>
        </mxCell>
        <mxCell id="njP6eJEiDt4mryLG6hPA-2" value="&amp;lt;&amp;lt;include&amp;gt;&amp;gt;" style="edgeLabel;resizable=0;html=1;align=center;verticalAlign=middle;rotation=0;" parent="njP6eJEiDt4mryLG6hPA-1" connectable="0" vertex="1">
          <mxGeometry relative="1" as="geometry" />
        </mxCell>
        <mxCell id="njP6eJEiDt4mryLG6hPA-3" value="Thông Báo Đơn Hàng Qua Email" style="ellipse;whiteSpace=wrap;html=1;" parent="1" vertex="1">
          <mxGeometry x="960" y="250" width="100" height="48.5" as="geometry" />
        </mxCell>
        <mxCell id="njP6eJEiDt4mryLG6hPA-7" value="Chọn Địa Chỉ Nhận Hàng" style="ellipse;whiteSpace=wrap;html=1;" parent="1" vertex="1">
          <mxGeometry x="650" y="147.5" width="100" height="47.5" as="geometry" />
        </mxCell>
        <mxCell id="njP6eJEiDt4mryLG6hPA-8" value="" style="endArrow=classic;html=1;rounded=0;dashed=1;exitX=0.5;exitY=0;exitDx=0;exitDy=0;entryX=0.5;entryY=1;entryDx=0;entryDy=0;" parent="1" source="U916hh3kJJznK2FT_YiY-3" target="njP6eJEiDt4mryLG6hPA-7" edge="1">
          <mxGeometry relative="1" as="geometry">
            <mxPoint x="591.75" y="209" as="sourcePoint" />
            <mxPoint x="486.75" y="172" as="targetPoint" />
          </mxGeometry>
        </mxCell>
        <mxCell id="njP6eJEiDt4mryLG6hPA-9" value="&amp;lt;&amp;lt;include&amp;gt;&amp;gt;" style="edgeLabel;resizable=0;html=1;align=center;verticalAlign=middle;rotation=-15;" parent="njP6eJEiDt4mryLG6hPA-8" connectable="0" vertex="1">
          <mxGeometry relative="1" as="geometry">
            <mxPoint x="3" y="-2" as="offset" />
          </mxGeometry>
        </mxCell>
        <mxCell id="njP6eJEiDt4mryLG6hPA-21" value="Theo Dõi&lt;br&gt;Đơn Hàng" style="ellipse;whiteSpace=wrap;html=1;" parent="1" vertex="1">
          <mxGeometry x="680" y="342" width="100" height="39.5" as="geometry" />
        </mxCell>
        <mxCell id="njP6eJEiDt4mryLG6hPA-22" value="Đăng Nhập" style="ellipse;whiteSpace=wrap;html=1;" parent="1" vertex="1">
          <mxGeometry x="195" y="120" width="100" height="50" as="geometry" />
        </mxCell>
        <mxCell id="njP6eJEiDt4mryLG6hPA-29" value="Quên Mật Khẩu" style="ellipse;whiteSpace=wrap;html=1;" parent="1" vertex="1">
          <mxGeometry x="12.499999999999996" y="104.75" width="118.13" height="50" as="geometry" />
        </mxCell>
        <mxCell id="njP6eJEiDt4mryLG6hPA-30" value="" style="endArrow=classic;html=1;rounded=0;dashed=1;entryX=0;entryY=0;entryDx=0;entryDy=0;exitX=1;exitY=0.5;exitDx=0;exitDy=0;" parent="1" source="njP6eJEiDt4mryLG6hPA-29" target="njP6eJEiDt4mryLG6hPA-22" edge="1">
          <mxGeometry relative="1" as="geometry">
            <mxPoint x="213.5" y="340" as="sourcePoint" />
            <mxPoint x="133.5" y="380" as="targetPoint" />
          </mxGeometry>
        </mxCell>
        <mxCell id="njP6eJEiDt4mryLG6hPA-31" value="&amp;lt;&amp;lt;extend&amp;gt;&amp;gt;" style="edgeLabel;resizable=0;html=1;align=center;verticalAlign=middle;" parent="njP6eJEiDt4mryLG6hPA-30" connectable="0" vertex="1">
          <mxGeometry relative="1" as="geometry" />
        </mxCell>
        <mxCell id="KIdoIspumGK5s08ifRZG-26" value="" style="endArrow=classic;html=1;rounded=0;exitX=0;exitY=0.3333333333333333;exitDx=0;exitDy=0;exitPerimeter=0;entryX=1;entryY=0.5;entryDx=0;entryDy=0;" parent="1" source="VI5dOtCWEcdj1Nun_BYY-2" target="njP6eJEiDt4mryLG6hPA-22" edge="1">
          <mxGeometry width="50" height="50" relative="1" as="geometry">
            <mxPoint x="380" y="410" as="sourcePoint" />
            <mxPoint x="430" y="360" as="targetPoint" />
          </mxGeometry>
        </mxCell>
        <mxCell id="KIdoIspumGK5s08ifRZG-27" value="" style="endArrow=classic;html=1;rounded=0;exitX=0;exitY=0.3333333333333333;exitDx=0;exitDy=0;exitPerimeter=0;entryX=0.954;entryY=0.756;entryDx=0;entryDy=0;entryPerimeter=0;" parent="1" source="VI5dOtCWEcdj1Nun_BYY-2" target="VI5dOtCWEcdj1Nun_BYY-6" edge="1">
          <mxGeometry width="50" height="50" relative="1" as="geometry">
            <mxPoint x="380" y="410" as="sourcePoint" />
            <mxPoint x="430" y="360" as="targetPoint" />
          </mxGeometry>
        </mxCell>
        <mxCell id="KIdoIspumGK5s08ifRZG-28" value="" style="endArrow=classic;html=1;rounded=0;exitX=0;exitY=0.3333333333333333;exitDx=0;exitDy=0;exitPerimeter=0;entryX=1;entryY=1;entryDx=0;entryDy=0;" parent="1" source="VI5dOtCWEcdj1Nun_BYY-2" target="VI5dOtCWEcdj1Nun_BYY-7" edge="1">
          <mxGeometry width="50" height="50" relative="1" as="geometry">
            <mxPoint x="380" y="410" as="sourcePoint" />
            <mxPoint x="430" y="360" as="targetPoint" />
          </mxGeometry>
        </mxCell>
        <mxCell id="KIdoIspumGK5s08ifRZG-29" value="" style="endArrow=classic;html=1;rounded=0;exitX=1;exitY=0.3333333333333333;exitDx=0;exitDy=0;exitPerimeter=0;entryX=0.5;entryY=0;entryDx=0;entryDy=0;" parent="1" source="VI5dOtCWEcdj1Nun_BYY-2" target="U916hh3kJJznK2FT_YiY-1" edge="1">
          <mxGeometry width="50" height="50" relative="1" as="geometry">
            <mxPoint x="480" y="503.3333333333335" as="sourcePoint" />
            <mxPoint x="420" y="420" as="targetPoint" />
          </mxGeometry>
        </mxCell>
        <mxCell id="KIdoIspumGK5s08ifRZG-30" value="" style="endArrow=classic;html=1;rounded=0;entryX=0;entryY=1;entryDx=0;entryDy=0;exitX=1;exitY=0.3333333333333333;exitDx=0;exitDy=0;exitPerimeter=0;" parent="1" source="VI5dOtCWEcdj1Nun_BYY-2" target="U916hh3kJJznK2FT_YiY-3" edge="1">
          <mxGeometry width="50" height="50" relative="1" as="geometry">
            <mxPoint x="380" y="410" as="sourcePoint" />
            <mxPoint x="430" y="360" as="targetPoint" />
          </mxGeometry>
        </mxCell>
        <mxCell id="KIdoIspumGK5s08ifRZG-33" value="" style="endArrow=classic;html=1;rounded=0;exitX=1;exitY=0.3333333333333333;exitDx=0;exitDy=0;exitPerimeter=0;entryX=0;entryY=0.5;entryDx=0;entryDy=0;" parent="1" source="VI5dOtCWEcdj1Nun_BYY-2" target="njP6eJEiDt4mryLG6hPA-21" edge="1">
          <mxGeometry width="50" height="50" relative="1" as="geometry">
            <mxPoint x="380" y="410" as="sourcePoint" />
            <mxPoint x="430" y="360" as="targetPoint" />
          </mxGeometry>
        </mxCell>
        <mxCell id="0XRQ5z2vTksAi3L02LTu-1" value="Đăng Ký&lt;br&gt;" style="ellipse;whiteSpace=wrap;html=1;" parent="1" vertex="1">
          <mxGeometry x="414" y="260" width="100" height="30" as="geometry" />
        </mxCell>
        <mxCell id="0XRQ5z2vTksAi3L02LTu-2" value="" style="endArrow=classic;html=1;rounded=0;exitX=0;exitY=0.3333333333333333;exitDx=0;exitDy=0;exitPerimeter=0;entryX=0.5;entryY=1;entryDx=0;entryDy=0;" parent="1" source="VI5dOtCWEcdj1Nun_BYY-2" target="0XRQ5z2vTksAi3L02LTu-1" edge="1">
          <mxGeometry width="50" height="50" relative="1" as="geometry">
            <mxPoint x="380" y="410" as="sourcePoint" />
            <mxPoint x="430" y="360" as="targetPoint" />
          </mxGeometry>
        </mxCell>
        <mxCell id="R5vAs9brhIb1CsYHl-kJ-1" value="" style="endArrow=classic;html=1;rounded=0;dashed=1;entryX=0;entryY=0.5;entryDx=0;entryDy=0;exitX=1;exitY=0.5;exitDx=0;exitDy=0;" parent="1" target="R5vAs9brhIb1CsYHl-kJ-3" edge="1" source="njP6eJEiDt4mryLG6hPA-21">
          <mxGeometry relative="1" as="geometry">
            <mxPoint x="760" y="446" as="sourcePoint" />
            <mxPoint x="924.5" y="420" as="targetPoint" />
          </mxGeometry>
        </mxCell>
        <mxCell id="R5vAs9brhIb1CsYHl-kJ-2" value="&amp;lt;&amp;lt;include&amp;gt;&amp;gt;" style="edgeLabel;resizable=0;html=1;align=center;verticalAlign=middle;" parent="R5vAs9brhIb1CsYHl-kJ-1" connectable="0" vertex="1">
          <mxGeometry relative="1" as="geometry" />
        </mxCell>
        <mxCell id="R5vAs9brhIb1CsYHl-kJ-3" value="Xem tình trạng đơn hàng" style="ellipse;whiteSpace=wrap;html=1;" parent="1" vertex="1">
          <mxGeometry x="890" y="305" width="100" height="50" as="geometry" />
        </mxCell>
        <mxCell id="MJwJQrica5qsIUk2Jq4Y-1" value="Nhập thông tin cá nhân" style="ellipse;whiteSpace=wrap;html=1;" parent="1" vertex="1">
          <mxGeometry x="500" y="111" width="80" height="41" as="geometry" />
        </mxCell>
        <mxCell id="MJwJQrica5qsIUk2Jq4Y-2" value="Xác thực email" style="ellipse;whiteSpace=wrap;html=1;" parent="1" vertex="1">
          <mxGeometry x="401.5" y="88.25" width="98.5" height="46.25" as="geometry" />
        </mxCell>
        <mxCell id="MJwJQrica5qsIUk2Jq4Y-3" value="Trả về kết quả xác thực" style="ellipse;whiteSpace=wrap;html=1;" parent="1" vertex="1">
          <mxGeometry x="330" y="134.5" width="97" height="44.5" as="geometry" />
        </mxCell>
        <mxCell id="uzWzPlDMGyRUyMs-AI4P-1" value="Nhập username, password" style="ellipse;whiteSpace=wrap;html=1;" parent="1" vertex="1">
          <mxGeometry x="101" y="60" width="110" height="40" as="geometry" />
        </mxCell>
        <mxCell id="uzWzPlDMGyRUyMs-AI4P-2" value="Xác thực username, password" style="ellipse;whiteSpace=wrap;html=1;" parent="1" vertex="1">
          <mxGeometry x="185" y="15" width="119" height="50" as="geometry" />
        </mxCell>
        <mxCell id="uzWzPlDMGyRUyMs-AI4P-3" value="Xác thực Email" style="ellipse;whiteSpace=wrap;html=1;" parent="1" vertex="1">
          <mxGeometry x="14.819999999999993" y="200" width="113.5" height="50" as="geometry" />
        </mxCell>
        <mxCell id="Jzj81iYG9Bhw23Lsi_kg-4" value="Chọn Phương Thức Thanh Toán" style="ellipse;whiteSpace=wrap;html=1;" parent="1" vertex="1">
          <mxGeometry x="855.5" y="172.5" width="121" height="47.5" as="geometry" />
        </mxCell>
        <mxCell id="Jzj81iYG9Bhw23Lsi_kg-6" value="" style="endArrow=classic;html=1;rounded=0;dashed=1;exitX=1;exitY=0.5;exitDx=0;exitDy=0;entryX=0;entryY=0.5;entryDx=0;entryDy=0;" parent="1" source="U916hh3kJJznK2FT_YiY-3" target="Jzj81iYG9Bhw23Lsi_kg-4" edge="1">
          <mxGeometry relative="1" as="geometry">
            <mxPoint x="597" y="110.52999999999997" as="sourcePoint" />
            <mxPoint x="378" y="163.52999999999997" as="targetPoint" />
          </mxGeometry>
        </mxCell>
        <mxCell id="Jzj81iYG9Bhw23Lsi_kg-7" value="&amp;lt;&amp;lt;include&amp;gt;&amp;gt;" style="edgeLabel;resizable=0;html=1;align=center;verticalAlign=middle;rotation=-30;" parent="Jzj81iYG9Bhw23Lsi_kg-6" connectable="0" vertex="1">
          <mxGeometry relative="1" as="geometry">
            <mxPoint x="2" y="1" as="offset" />
          </mxGeometry>
        </mxCell>
        <mxCell id="Jzj81iYG9Bhw23Lsi_kg-10" value="Hủy Đơn Hàng" style="ellipse;whiteSpace=wrap;html=1;" parent="1" vertex="1">
          <mxGeometry x="876.5" y="435.5" width="100" height="40" as="geometry" />
        </mxCell>
        <mxCell id="Jzj81iYG9Bhw23Lsi_kg-41" value="Xem Chi Tiết &lt;br&gt;Đơn Hàng" style="ellipse;whiteSpace=wrap;html=1;" parent="1" vertex="1">
          <mxGeometry x="890" y="370.5" width="100" height="50" as="geometry" />
        </mxCell>
        <mxCell id="Jzj81iYG9Bhw23Lsi_kg-42" value="" style="endArrow=classic;html=1;rounded=0;dashed=1;entryX=1;entryY=1;entryDx=0;entryDy=0;exitX=0;exitY=0.5;exitDx=0;exitDy=0;" parent="1" source="Jzj81iYG9Bhw23Lsi_kg-41" target="njP6eJEiDt4mryLG6hPA-21" edge="1">
          <mxGeometry relative="1" as="geometry">
            <mxPoint x="820" y="535" as="sourcePoint" />
            <mxPoint x="700.5" y="562.75" as="targetPoint" />
          </mxGeometry>
        </mxCell>
        <mxCell id="Jzj81iYG9Bhw23Lsi_kg-43" value="&amp;lt;&amp;lt;extend&amp;gt;&amp;gt;" style="edgeLabel;resizable=0;html=1;align=center;verticalAlign=middle;" parent="Jzj81iYG9Bhw23Lsi_kg-42" connectable="0" vertex="1">
          <mxGeometry relative="1" as="geometry" />
        </mxCell>
        <mxCell id="Jzj81iYG9Bhw23Lsi_kg-49" value="Quản Lý Thông Tin Cá Nhân" style="ellipse;whiteSpace=wrap;html=1;" parent="1" vertex="1">
          <mxGeometry x="250" y="420.5" width="120" height="44.5" as="geometry" />
        </mxCell>
        <mxCell id="Jzj81iYG9Bhw23Lsi_kg-51" value="" style="endArrow=classic;html=1;rounded=0;exitX=0;exitY=0.3333333333333333;exitDx=0;exitDy=0;exitPerimeter=0;" parent="1" source="VI5dOtCWEcdj1Nun_BYY-2" target="Jzj81iYG9Bhw23Lsi_kg-49" edge="1">
          <mxGeometry width="50" height="50" relative="1" as="geometry">
            <mxPoint x="500" y="453" as="sourcePoint" />
            <mxPoint x="245" y="475" as="targetPoint" />
          </mxGeometry>
        </mxCell>
        <mxCell id="yFxPdp2MYbYZl5f02nNx-1" value="" style="endArrow=classic;html=1;rounded=0;dashed=1;entryX=0.5;entryY=1;entryDx=0;entryDy=0;exitX=0.5;exitY=0;exitDx=0;exitDy=0;" parent="1" source="VI5dOtCWEcdj1Nun_BYY-6" target="njP6eJEiDt4mryLG6hPA-22" edge="1">
          <mxGeometry relative="1" as="geometry">
            <mxPoint x="260" y="210" as="sourcePoint" />
            <mxPoint x="227.5" y="152" as="targetPoint" />
          </mxGeometry>
        </mxCell>
        <mxCell id="yFxPdp2MYbYZl5f02nNx-2" value="&amp;lt;&amp;lt;extend&amp;gt;&amp;gt;" style="edgeLabel;resizable=0;html=1;align=center;verticalAlign=middle;" parent="yFxPdp2MYbYZl5f02nNx-1" connectable="0" vertex="1">
          <mxGeometry relative="1" as="geometry" />
        </mxCell>
        <mxCell id="ZFwm70rhYoilZPjfMuoB-2" value="Cập nhật &lt;br&gt;thông tin" style="ellipse;whiteSpace=wrap;html=1;" parent="1" vertex="1">
          <mxGeometry x="120.00000000000003" y="480" width="100" height="50" as="geometry" />
        </mxCell>
        <mxCell id="ZFwm70rhYoilZPjfMuoB-3" value="Xem thông tin" style="ellipse;whiteSpace=wrap;html=1;" parent="1" vertex="1">
          <mxGeometry x="85.00000000000003" y="410" width="100" height="38.5" as="geometry" />
        </mxCell>
        <mxCell id="ZFwm70rhYoilZPjfMuoB-4" value="Địa Chỉ" style="ellipse;whiteSpace=wrap;html=1;" parent="1" vertex="1">
          <mxGeometry x="-17.68" y="440.5" width="90" height="30" as="geometry" />
        </mxCell>
        <mxCell id="ZFwm70rhYoilZPjfMuoB-5" value="Email" style="ellipse;whiteSpace=wrap;html=1;" parent="1" vertex="1">
          <mxGeometry x="27.50000000000003" y="548" width="75" height="36.5" as="geometry" />
        </mxCell>
        <mxCell id="ZFwm70rhYoilZPjfMuoB-6" value="Tên" style="ellipse;whiteSpace=wrap;html=1;" parent="1" vertex="1">
          <mxGeometry x="-30" y="487.5" width="65" height="35" as="geometry" />
        </mxCell>
        <mxCell id="ZFwm70rhYoilZPjfMuoB-7" value="Xác thực email" style="ellipse;whiteSpace=wrap;html=1;" parent="1" vertex="1">
          <mxGeometry x="150.00000000000003" y="591.5" width="90" height="50" as="geometry" />
        </mxCell>
        <mxCell id="ZFwm70rhYoilZPjfMuoB-11" value="" style="endArrow=classic;html=1;rounded=0;dashed=1;entryX=0;entryY=0.5;entryDx=0;entryDy=0;exitX=0.5;exitY=1;exitDx=0;exitDy=0;" parent="1" source="ZFwm70rhYoilZPjfMuoB-5" target="ZFwm70rhYoilZPjfMuoB-7" edge="1">
          <mxGeometry relative="1" as="geometry">
            <mxPoint x="262.00000000000006" y="362" as="sourcePoint" />
            <mxPoint x="147.00000000000006" y="267" as="targetPoint" />
          </mxGeometry>
        </mxCell>
        <mxCell id="ZFwm70rhYoilZPjfMuoB-12" value="&amp;lt;&amp;lt;include&amp;gt;&amp;gt;" style="edgeLabel;resizable=0;html=1;align=center;verticalAlign=middle;" parent="ZFwm70rhYoilZPjfMuoB-11" connectable="0" vertex="1">
          <mxGeometry relative="1" as="geometry" />
        </mxCell>
        <mxCell id="ZFwm70rhYoilZPjfMuoB-16" value="" style="endArrow=classic;html=1;rounded=0;dashed=1;entryX=0;entryY=0.5;entryDx=0;entryDy=0;exitX=1;exitY=0;exitDx=0;exitDy=0;" parent="1" source="ZFwm70rhYoilZPjfMuoB-2" target="Jzj81iYG9Bhw23Lsi_kg-49" edge="1">
          <mxGeometry relative="1" as="geometry">
            <mxPoint x="-248.52999999999997" y="355.62" as="sourcePoint" />
            <mxPoint x="-21.896406871192994" y="385.3332034355958" as="targetPoint" />
          </mxGeometry>
        </mxCell>
        <mxCell id="ZFwm70rhYoilZPjfMuoB-17" value="&amp;lt;&amp;lt;extend&amp;gt;&amp;gt;" style="edgeLabel;resizable=0;html=1;align=center;verticalAlign=middle;" parent="ZFwm70rhYoilZPjfMuoB-16" connectable="0" vertex="1">
          <mxGeometry relative="1" as="geometry" />
        </mxCell>
        <mxCell id="ZFwm70rhYoilZPjfMuoB-18" value="" style="endArrow=classic;html=1;rounded=0;dashed=1;entryX=0.088;entryY=0.168;entryDx=0;entryDy=0;exitX=1;exitY=0.5;exitDx=0;exitDy=0;entryPerimeter=0;" parent="1" source="ZFwm70rhYoilZPjfMuoB-4" target="ZFwm70rhYoilZPjfMuoB-2" edge="1">
          <mxGeometry relative="1" as="geometry">
            <mxPoint x="-9.999999999999972" y="395" as="sourcePoint" />
            <mxPoint x="162.00000000000006" y="364" as="targetPoint" />
          </mxGeometry>
        </mxCell>
        <mxCell id="ZFwm70rhYoilZPjfMuoB-19" value="&amp;lt;&amp;lt;extend&amp;gt;&amp;gt;" style="edgeLabel;resizable=0;html=1;align=center;verticalAlign=middle;rotation=15;" parent="ZFwm70rhYoilZPjfMuoB-18" connectable="0" vertex="1">
          <mxGeometry relative="1" as="geometry" />
        </mxCell>
        <mxCell id="ZFwm70rhYoilZPjfMuoB-20" value="" style="endArrow=classic;html=1;rounded=0;dashed=1;entryX=0;entryY=0.5;entryDx=0;entryDy=0;exitX=1;exitY=0.5;exitDx=0;exitDy=0;" parent="1" source="ZFwm70rhYoilZPjfMuoB-6" target="ZFwm70rhYoilZPjfMuoB-2" edge="1">
          <mxGeometry relative="1" as="geometry">
            <mxPoint x="2.842170943040401e-14" y="405" as="sourcePoint" />
            <mxPoint x="172.00000000000006" y="374" as="targetPoint" />
          </mxGeometry>
        </mxCell>
        <mxCell id="ZFwm70rhYoilZPjfMuoB-21" value="&amp;lt;&amp;lt;extend&amp;gt;&amp;gt;" style="edgeLabel;resizable=0;html=1;align=center;verticalAlign=middle;" parent="ZFwm70rhYoilZPjfMuoB-20" connectable="0" vertex="1">
          <mxGeometry relative="1" as="geometry" />
        </mxCell>
        <mxCell id="ZFwm70rhYoilZPjfMuoB-22" value="" style="endArrow=classic;html=1;rounded=0;dashed=1;entryX=0;entryY=1;entryDx=0;entryDy=0;exitX=1;exitY=0;exitDx=0;exitDy=0;" parent="1" source="ZFwm70rhYoilZPjfMuoB-5" target="ZFwm70rhYoilZPjfMuoB-2" edge="1">
          <mxGeometry relative="1" as="geometry">
            <mxPoint x="10.000000000000028" y="415" as="sourcePoint" />
            <mxPoint x="182.00000000000006" y="384" as="targetPoint" />
          </mxGeometry>
        </mxCell>
        <mxCell id="ZFwm70rhYoilZPjfMuoB-23" value="&amp;lt;&amp;lt;extend&amp;gt;&amp;gt;" style="edgeLabel;resizable=0;html=1;align=center;verticalAlign=middle;" parent="ZFwm70rhYoilZPjfMuoB-22" connectable="0" vertex="1">
          <mxGeometry relative="1" as="geometry" />
        </mxCell>
        <mxCell id="dphP3WUWF83l858FgpiT-1" value="" style="endArrow=classic;html=1;rounded=0;dashed=1;entryX=0.5;entryY=1;entryDx=0;entryDy=0;exitX=0;exitY=0.5;exitDx=0;exitDy=0;" parent="1" source="Jzj81iYG9Bhw23Lsi_kg-10" target="njP6eJEiDt4mryLG6hPA-21" edge="1">
          <mxGeometry relative="1" as="geometry">
            <mxPoint x="844" y="512" as="sourcePoint" />
            <mxPoint x="756" y="473" as="targetPoint" />
          </mxGeometry>
        </mxCell>
        <mxCell id="dphP3WUWF83l858FgpiT-2" value="&amp;lt;&amp;lt;extend&amp;gt;&amp;gt;" style="edgeLabel;resizable=0;html=1;align=center;verticalAlign=middle;" parent="dphP3WUWF83l858FgpiT-1" connectable="0" vertex="1">
          <mxGeometry relative="1" as="geometry" />
        </mxCell>
        <mxCell id="dphP3WUWF83l858FgpiT-7" value="" style="endArrow=classic;html=1;rounded=0;dashed=1;entryX=0.5;entryY=0;entryDx=0;entryDy=0;exitX=0.5;exitY=1;exitDx=0;exitDy=0;" parent="1" source="-3Dp8ozw6xUo-0P-WiqG-1" target="VI5dOtCWEcdj1Nun_BYY-7" edge="1">
          <mxGeometry relative="1" as="geometry">
            <mxPoint x="265" y="330" as="sourcePoint" />
            <mxPoint x="179" y="-47" as="targetPoint" />
          </mxGeometry>
        </mxCell>
        <mxCell id="dphP3WUWF83l858FgpiT-8" value="&amp;lt;&amp;lt;extend&amp;gt;&amp;gt;" style="edgeLabel;resizable=0;html=1;align=center;verticalAlign=middle;" parent="dphP3WUWF83l858FgpiT-7" connectable="0" vertex="1">
          <mxGeometry relative="1" as="geometry" />
        </mxCell>
        <mxCell id="dphP3WUWF83l858FgpiT-9" value="" style="endArrow=classic;html=1;rounded=0;dashed=1;entryX=0;entryY=0;entryDx=0;entryDy=0;exitX=1;exitY=1;exitDx=0;exitDy=0;" parent="1" source="-3Dp8ozw6xUo-0P-WiqG-2" target="VI5dOtCWEcdj1Nun_BYY-7" edge="1">
          <mxGeometry relative="1" as="geometry">
            <mxPoint x="-14" y="95" as="sourcePoint" />
            <mxPoint x="189" y="-37" as="targetPoint" />
          </mxGeometry>
        </mxCell>
        <mxCell id="dphP3WUWF83l858FgpiT-10" value="&amp;lt;&amp;lt;extend&amp;gt;&amp;gt;" style="edgeLabel;resizable=0;html=1;align=center;verticalAlign=middle;" parent="dphP3WUWF83l858FgpiT-9" connectable="0" vertex="1">
          <mxGeometry relative="1" as="geometry" />
        </mxCell>
        <mxCell id="dphP3WUWF83l858FgpiT-12" value="" style="endArrow=classic;html=1;rounded=0;dashed=1;exitX=1;exitY=0.5;exitDx=0;exitDy=0;entryX=0;entryY=0.5;entryDx=0;entryDy=0;" parent="1" source="FBeIQ9k9PZCa3juTkjIF-5" target="VI5dOtCWEcdj1Nun_BYY-7" edge="1">
          <mxGeometry relative="1" as="geometry">
            <mxPoint x="35" y="190" as="sourcePoint" />
            <mxPoint x="165" y="350" as="targetPoint" />
          </mxGeometry>
        </mxCell>
        <mxCell id="dphP3WUWF83l858FgpiT-13" value="&amp;lt;&amp;lt;extend&amp;gt;&amp;gt;" style="edgeLabel;resizable=0;html=1;align=center;verticalAlign=middle;" parent="dphP3WUWF83l858FgpiT-12" connectable="0" vertex="1">
          <mxGeometry relative="1" as="geometry" />
        </mxCell>
        <mxCell id="dphP3WUWF83l858FgpiT-14" value="" style="endArrow=classic;html=1;rounded=0;dashed=1;exitX=0.5;exitY=0;exitDx=0;exitDy=0;entryX=0.003;entryY=0.666;entryDx=0;entryDy=0;entryPerimeter=0;" parent="1" source="0XRQ5z2vTksAi3L02LTu-1" target="MJwJQrica5qsIUk2Jq4Y-1" edge="1">
          <mxGeometry relative="1" as="geometry">
            <mxPoint x="420" y="-67.5" as="sourcePoint" />
            <mxPoint x="360" y="-148.5" as="targetPoint" />
          </mxGeometry>
        </mxCell>
        <mxCell id="dphP3WUWF83l858FgpiT-15" value="&amp;lt;&amp;lt;include&amp;gt;&amp;gt;" style="edgeLabel;resizable=0;html=1;align=center;verticalAlign=middle;rotation=-75;" parent="dphP3WUWF83l858FgpiT-14" connectable="0" vertex="1">
          <mxGeometry relative="1" as="geometry" />
        </mxCell>
        <mxCell id="dphP3WUWF83l858FgpiT-16" value="" style="endArrow=classic;html=1;rounded=0;dashed=1;exitX=0.5;exitY=0;exitDx=0;exitDy=0;entryX=0.5;entryY=1;entryDx=0;entryDy=0;" parent="1" source="0XRQ5z2vTksAi3L02LTu-1" target="MJwJQrica5qsIUk2Jq4Y-2" edge="1">
          <mxGeometry relative="1" as="geometry">
            <mxPoint x="250" y="-5" as="sourcePoint" />
            <mxPoint x="-19" y="-172" as="targetPoint" />
          </mxGeometry>
        </mxCell>
        <mxCell id="dphP3WUWF83l858FgpiT-17" value="&amp;lt;&amp;lt;include&amp;gt;&amp;gt;" style="edgeLabel;resizable=0;html=1;align=center;verticalAlign=middle;rotation=0;" parent="dphP3WUWF83l858FgpiT-16" connectable="0" vertex="1">
          <mxGeometry relative="1" as="geometry">
            <mxPoint x="-3" y="-21" as="offset" />
          </mxGeometry>
        </mxCell>
        <mxCell id="dphP3WUWF83l858FgpiT-18" value="" style="endArrow=classic;html=1;rounded=0;dashed=1;exitX=0.5;exitY=0;exitDx=0;exitDy=0;entryX=1;entryY=1;entryDx=0;entryDy=0;" parent="1" source="0XRQ5z2vTksAi3L02LTu-1" target="MJwJQrica5qsIUk2Jq4Y-3" edge="1">
          <mxGeometry relative="1" as="geometry">
            <mxPoint x="260" y="5" as="sourcePoint" />
            <mxPoint x="-9" y="-162" as="targetPoint" />
          </mxGeometry>
        </mxCell>
        <mxCell id="dphP3WUWF83l858FgpiT-19" value="&amp;lt;&amp;lt;include&amp;gt;&amp;gt;" style="edgeLabel;resizable=0;html=1;align=center;verticalAlign=middle;rotation=60;" parent="dphP3WUWF83l858FgpiT-18" connectable="0" vertex="1">
          <mxGeometry relative="1" as="geometry" />
        </mxCell>
        <mxCell id="dphP3WUWF83l858FgpiT-20" value="" style="endArrow=classic;html=1;rounded=0;dashed=1;exitX=0.5;exitY=0;exitDx=0;exitDy=0;entryX=0.5;entryY=1;entryDx=0;entryDy=0;" parent="1" source="njP6eJEiDt4mryLG6hPA-22" target="uzWzPlDMGyRUyMs-AI4P-1" edge="1">
          <mxGeometry relative="1" as="geometry">
            <mxPoint x="-2.67999999999995" y="31" as="sourcePoint" />
            <mxPoint x="-62.67999999999995" y="-50" as="targetPoint" />
          </mxGeometry>
        </mxCell>
        <mxCell id="dphP3WUWF83l858FgpiT-21" value="&amp;lt;&amp;lt;include&amp;gt;&amp;gt;" style="edgeLabel;resizable=0;html=1;align=center;verticalAlign=middle;rotation=10;" parent="dphP3WUWF83l858FgpiT-20" connectable="0" vertex="1">
          <mxGeometry relative="1" as="geometry" />
        </mxCell>
        <mxCell id="dphP3WUWF83l858FgpiT-22" value="" style="endArrow=classic;html=1;rounded=0;dashed=1;exitX=0.5;exitY=0;exitDx=0;exitDy=0;entryX=0.5;entryY=1;entryDx=0;entryDy=0;" parent="1" source="njP6eJEiDt4mryLG6hPA-22" target="uzWzPlDMGyRUyMs-AI4P-2" edge="1">
          <mxGeometry relative="1" as="geometry">
            <mxPoint x="224" y="117" as="sourcePoint" />
            <mxPoint x="40" y="85" as="targetPoint" />
          </mxGeometry>
        </mxCell>
        <mxCell id="dphP3WUWF83l858FgpiT-23" value="&amp;lt;&amp;lt;include&amp;gt;&amp;gt;" style="edgeLabel;resizable=0;html=1;align=center;verticalAlign=middle;rotation=0;" parent="dphP3WUWF83l858FgpiT-22" connectable="0" vertex="1">
          <mxGeometry relative="1" as="geometry" />
        </mxCell>
        <mxCell id="dphP3WUWF83l858FgpiT-24" value="" style="endArrow=classic;html=1;rounded=0;dashed=1;exitX=0.5;exitY=1;exitDx=0;exitDy=0;entryX=0.5;entryY=0;entryDx=0;entryDy=0;" parent="1" source="njP6eJEiDt4mryLG6hPA-29" target="uzWzPlDMGyRUyMs-AI4P-3" edge="1">
          <mxGeometry relative="1" as="geometry">
            <mxPoint x="224" y="117" as="sourcePoint" />
            <mxPoint x="40" y="85" as="targetPoint" />
          </mxGeometry>
        </mxCell>
        <mxCell id="dphP3WUWF83l858FgpiT-25" value="&amp;lt;&amp;lt;include&amp;gt;&amp;gt;" style="edgeLabel;resizable=0;html=1;align=center;verticalAlign=middle;rotation=0;" parent="dphP3WUWF83l858FgpiT-24" connectable="0" vertex="1">
          <mxGeometry relative="1" as="geometry" />
        </mxCell>
        <mxCell id="dphP3WUWF83l858FgpiT-26" value="" style="endArrow=classic;html=1;rounded=0;dashed=1;exitX=1;exitY=0.5;exitDx=0;exitDy=0;entryX=0;entryY=1;entryDx=0;entryDy=0;" parent="1" source="Go1Fh4fUNzz7-yvz6-2v-2" target="VI5dOtCWEcdj1Nun_BYY-7" edge="1">
          <mxGeometry relative="1" as="geometry">
            <mxPoint x="187" y="340" as="sourcePoint" />
            <mxPoint x="265" y="367" as="targetPoint" />
          </mxGeometry>
        </mxCell>
        <mxCell id="dphP3WUWF83l858FgpiT-27" value="&amp;lt;&amp;lt;extend&amp;gt;&amp;gt;" style="edgeLabel;resizable=0;html=1;align=center;verticalAlign=middle;" parent="dphP3WUWF83l858FgpiT-26" connectable="0" vertex="1">
          <mxGeometry relative="1" as="geometry" />
        </mxCell>
        <mxCell id="dphP3WUWF83l858FgpiT-28" value="" style="endArrow=classic;html=1;rounded=0;dashed=1;exitX=1;exitY=0.5;exitDx=0;exitDy=0;entryX=0;entryY=0;entryDx=0;entryDy=0;" parent="1" source="ZFwm70rhYoilZPjfMuoB-3" target="Jzj81iYG9Bhw23Lsi_kg-49" edge="1">
          <mxGeometry relative="1" as="geometry">
            <mxPoint x="110" y="345" as="sourcePoint" />
            <mxPoint x="264" y="344" as="targetPoint" />
          </mxGeometry>
        </mxCell>
        <mxCell id="dphP3WUWF83l858FgpiT-29" value="&amp;lt;&amp;lt;extend&amp;gt;&amp;gt;" style="edgeLabel;resizable=0;html=1;align=center;verticalAlign=middle;rotation=0;" parent="dphP3WUWF83l858FgpiT-28" connectable="0" vertex="1">
          <mxGeometry relative="1" as="geometry" />
        </mxCell>
        <mxCell id="dphP3WUWF83l858FgpiT-31" value="COD" style="ellipse;whiteSpace=wrap;html=1;" parent="1" vertex="1">
          <mxGeometry x="790" y="104.5" width="90" height="30" as="geometry" />
        </mxCell>
        <mxCell id="dphP3WUWF83l858FgpiT-34" value="Momo" style="ellipse;whiteSpace=wrap;html=1;" parent="1" vertex="1">
          <mxGeometry x="871" y="74.5" width="90" height="30" as="geometry" />
        </mxCell>
        <mxCell id="dphP3WUWF83l858FgpiT-37" value="Mobile Banking" style="ellipse;whiteSpace=wrap;html=1;" parent="1" vertex="1">
          <mxGeometry x="969.42" y="105.5" width="90" height="30" as="geometry" />
        </mxCell>
        <mxCell id="dphP3WUWF83l858FgpiT-46" value="" style="endArrow=classic;html=1;rounded=0;dashed=1;entryX=0.5;entryY=1;entryDx=0;entryDy=0;exitX=0.5;exitY=0;exitDx=0;exitDy=0;" parent="1" source="Jzj81iYG9Bhw23Lsi_kg-4" target="dphP3WUWF83l858FgpiT-31" edge="1">
          <mxGeometry relative="1" as="geometry">
            <mxPoint x="1190" y="225" as="sourcePoint" />
            <mxPoint x="1310" y="224" as="targetPoint" />
          </mxGeometry>
        </mxCell>
        <mxCell id="dphP3WUWF83l858FgpiT-47" value="&amp;lt;&amp;lt;include&amp;gt;&amp;gt;" style="edgeLabel;resizable=0;html=1;align=center;verticalAlign=middle;rotation=0;" parent="dphP3WUWF83l858FgpiT-46" connectable="0" vertex="1">
          <mxGeometry relative="1" as="geometry" />
        </mxCell>
        <mxCell id="dphP3WUWF83l858FgpiT-48" value="" style="endArrow=classic;html=1;rounded=0;dashed=1;entryX=0.5;entryY=1;entryDx=0;entryDy=0;exitX=0.5;exitY=0;exitDx=0;exitDy=0;" parent="1" source="Jzj81iYG9Bhw23Lsi_kg-4" target="dphP3WUWF83l858FgpiT-34" edge="1">
          <mxGeometry relative="1" as="geometry">
            <mxPoint x="1018" y="225" as="sourcePoint" />
            <mxPoint x="1100" y="185" as="targetPoint" />
          </mxGeometry>
        </mxCell>
        <mxCell id="dphP3WUWF83l858FgpiT-49" value="&amp;lt;&amp;lt;include&amp;gt;&amp;gt;" style="edgeLabel;resizable=0;html=1;align=center;verticalAlign=middle;rotation=0;" parent="dphP3WUWF83l858FgpiT-48" connectable="0" vertex="1">
          <mxGeometry relative="1" as="geometry">
            <mxPoint y="-7" as="offset" />
          </mxGeometry>
        </mxCell>
        <mxCell id="dphP3WUWF83l858FgpiT-50" value="" style="endArrow=classic;html=1;rounded=0;dashed=1;entryX=0;entryY=0.5;entryDx=0;entryDy=0;exitX=0.5;exitY=0;exitDx=0;exitDy=0;" parent="1" source="Jzj81iYG9Bhw23Lsi_kg-4" target="dphP3WUWF83l858FgpiT-37" edge="1">
          <mxGeometry relative="1" as="geometry">
            <mxPoint x="1028" y="235" as="sourcePoint" />
            <mxPoint x="1110" y="195" as="targetPoint" />
          </mxGeometry>
        </mxCell>
        <mxCell id="dphP3WUWF83l858FgpiT-51" value="&amp;lt;&amp;lt;include&amp;gt;&amp;gt;" style="edgeLabel;resizable=0;html=1;align=center;verticalAlign=middle;rotation=0;" parent="dphP3WUWF83l858FgpiT-50" connectable="0" vertex="1">
          <mxGeometry relative="1" as="geometry" />
        </mxCell>
        <mxCell id="dphP3WUWF83l858FgpiT-53" value="" style="endArrow=classic;html=1;rounded=0;dashed=1;exitX=0;exitY=0.5;exitDx=0;exitDy=0;entryX=0.615;entryY=1;entryDx=0;entryDy=0;entryPerimeter=0;" parent="1" source="dphP3WUWF83l858FgpiT-55" target="U916hh3kJJznK2FT_YiY-1" edge="1">
          <mxGeometry relative="1" as="geometry">
            <mxPoint x="715" y="654.6" as="sourcePoint" />
            <mxPoint x="725" y="504.6" as="targetPoint" />
          </mxGeometry>
        </mxCell>
        <mxCell id="dphP3WUWF83l858FgpiT-54" value="&amp;lt;&amp;lt;extend&amp;gt;&amp;gt;" style="edgeLabel;resizable=0;html=1;align=center;verticalAlign=middle;rotation=0;" parent="dphP3WUWF83l858FgpiT-53" connectable="0" vertex="1">
          <mxGeometry relative="1" as="geometry" />
        </mxCell>
        <mxCell id="dphP3WUWF83l858FgpiT-55" value="Đặt Hàng" style="ellipse;whiteSpace=wrap;html=1;" parent="1" vertex="1">
          <mxGeometry x="871" y="485.75" width="100" height="38.5" as="geometry" />
        </mxCell>
        <mxCell id="43UsQtczo_YYG6mlBqi8-1" value="Trả kết quả xác thực" style="ellipse;whiteSpace=wrap;html=1;" parent="1" vertex="1">
          <mxGeometry x="290" y="60" width="109.06" height="40" as="geometry" />
        </mxCell>
        <mxCell id="43UsQtczo_YYG6mlBqi8-2" value="" style="endArrow=classic;html=1;rounded=0;dashed=1;entryX=0.5;entryY=1;entryDx=0;entryDy=0;exitX=0.5;exitY=0;exitDx=0;exitDy=0;" parent="1" source="njP6eJEiDt4mryLG6hPA-22" target="43UsQtczo_YYG6mlBqi8-1" edge="1">
          <mxGeometry relative="1" as="geometry">
            <mxPoint x="117" y="29" as="sourcePoint" />
            <mxPoint x="-269.87" y="184" as="targetPoint" />
          </mxGeometry>
        </mxCell>
        <mxCell id="43UsQtczo_YYG6mlBqi8-3" value="&amp;lt;&amp;lt;include&amp;gt;&amp;gt;" style="edgeLabel;resizable=0;html=1;align=center;verticalAlign=middle;" parent="43UsQtczo_YYG6mlBqi8-2" connectable="0" vertex="1">
          <mxGeometry relative="1" as="geometry" />
        </mxCell>
      </root>
    </mxGraphModel>
  </diagram>
  <diagram id="BGInaf6gT_OyZVO_-nlY" name="Admin">
    <mxGraphModel dx="2841" dy="2064" grid="1" gridSize="10" guides="1" tooltips="1" connect="1" arrows="1" fold="1" page="1" pageScale="1" pageWidth="827" pageHeight="1169" math="0" shadow="0">
      <root>
        <mxCell id="0" />
        <mxCell id="1" parent="0" />
        <mxCell id="BXApnJyH0IZ3J1MoyKJh-1" value="Quản trị viên" style="shape=umlActor;verticalLabelPosition=bottom;verticalAlign=top;html=1;outlineConnect=0;labelBackgroundColor=#CC0000;fontColor=#FFFFFF;fontStyle=1" parent="1" vertex="1">
          <mxGeometry x="490" y="108.5" width="60" height="85" as="geometry" />
        </mxCell>
        <mxCell id="BXApnJyH0IZ3J1MoyKJh-3" value="Đăng Xuất" style="ellipse;whiteSpace=wrap;html=1;" parent="1" vertex="1">
          <mxGeometry x="227" width="100" height="50" as="geometry" />
        </mxCell>
        <mxCell id="BXApnJyH0IZ3J1MoyKJh-4" value="Xem Sản Phẩm" style="ellipse;whiteSpace=wrap;html=1;" parent="1" vertex="1">
          <mxGeometry x="227" y="111" width="100" height="50" as="geometry" />
        </mxCell>
        <mxCell id="BXApnJyH0IZ3J1MoyKJh-5" value="Thông Tin &lt;br&gt;Sản Phẩm" style="ellipse;whiteSpace=wrap;html=1;" parent="1" vertex="1">
          <mxGeometry x="50" y="-11" width="90" height="40" as="geometry" />
        </mxCell>
        <mxCell id="BXApnJyH0IZ3J1MoyKJh-6" value="Phân Loại &lt;br&gt;Sản Phẩm" style="ellipse;whiteSpace=wrap;html=1;" parent="1" vertex="1">
          <mxGeometry y="39.5" width="90" height="40" as="geometry" />
        </mxCell>
        <mxCell id="BXApnJyH0IZ3J1MoyKJh-7" value="Tìm Kiếm&lt;br&gt;Sản Phẩm" style="ellipse;whiteSpace=wrap;html=1;" parent="1" vertex="1">
          <mxGeometry x="-10.219999999999999" y="99.5" width="90" height="50" as="geometry" />
        </mxCell>
        <mxCell id="BXApnJyH0IZ3J1MoyKJh-16" value="Thêm Sản Phẩm&lt;br&gt;Vào Giỏ Hàng" style="ellipse;whiteSpace=wrap;html=1;" parent="1" vertex="1">
          <mxGeometry x="-30" y="160" width="100" height="50" as="geometry" />
        </mxCell>
        <mxCell id="BXApnJyH0IZ3J1MoyKJh-37" value="Đăng Nhập" style="ellipse;whiteSpace=wrap;html=1;" parent="1" vertex="1">
          <mxGeometry x="402.13" y="-66" width="100" height="50" as="geometry" />
        </mxCell>
        <mxCell id="BXApnJyH0IZ3J1MoyKJh-38" value="Quên Mật Khẩu" style="ellipse;whiteSpace=wrap;html=1;" parent="1" vertex="1">
          <mxGeometry x="190" y="-70" width="118.13" height="40" as="geometry" />
        </mxCell>
        <mxCell id="BXApnJyH0IZ3J1MoyKJh-39" value="" style="endArrow=classic;html=1;rounded=0;dashed=1;entryX=0;entryY=0.5;entryDx=0;entryDy=0;exitX=1;exitY=0.5;exitDx=0;exitDy=0;" parent="1" source="BXApnJyH0IZ3J1MoyKJh-38" target="BXApnJyH0IZ3J1MoyKJh-37" edge="1">
          <mxGeometry relative="1" as="geometry">
            <mxPoint x="118.13" y="50" as="sourcePoint" />
            <mxPoint x="38.13" y="90" as="targetPoint" />
          </mxGeometry>
        </mxCell>
        <mxCell id="BXApnJyH0IZ3J1MoyKJh-40" value="&amp;lt;&amp;lt;extend&amp;gt;&amp;gt;" style="edgeLabel;resizable=0;html=1;align=center;verticalAlign=middle;rotation=10;" parent="BXApnJyH0IZ3J1MoyKJh-39" connectable="0" vertex="1">
          <mxGeometry relative="1" as="geometry" />
        </mxCell>
        <mxCell id="BXApnJyH0IZ3J1MoyKJh-41" value="Quản Lý &lt;br&gt;Sản Phẩm" style="ellipse;whiteSpace=wrap;html=1;" parent="1" vertex="1">
          <mxGeometry x="720" y="-120" width="100" height="50" as="geometry" />
        </mxCell>
        <mxCell id="BXApnJyH0IZ3J1MoyKJh-42" value="Quản Lý&lt;br&gt;Đơn Hàng" style="ellipse;whiteSpace=wrap;html=1;" parent="1" vertex="1">
          <mxGeometry x="720" y="-46.5" width="100" height="50" as="geometry" />
        </mxCell>
        <mxCell id="BXApnJyH0IZ3J1MoyKJh-43" value="Quản Lý &lt;br&gt;Loại Sản Phẩm" style="ellipse;whiteSpace=wrap;html=1;" parent="1" vertex="1">
          <mxGeometry x="720" y="32.5" width="100" height="50" as="geometry" />
        </mxCell>
        <mxCell id="BXApnJyH0IZ3J1MoyKJh-44" value="Quản Lý&lt;br&gt;Tài Khoản" style="ellipse;whiteSpace=wrap;html=1;" parent="1" vertex="1">
          <mxGeometry x="640" y="270" width="100" height="50" as="geometry" />
        </mxCell>
        <mxCell id="BXApnJyH0IZ3J1MoyKJh-48" value="" style="endArrow=classic;html=1;rounded=0;entryX=0;entryY=1;entryDx=0;entryDy=0;exitX=1;exitY=0.3333333333333333;exitDx=0;exitDy=0;exitPerimeter=0;" parent="1" source="BXApnJyH0IZ3J1MoyKJh-1" target="BXApnJyH0IZ3J1MoyKJh-41" edge="1">
          <mxGeometry width="50" height="50" relative="1" as="geometry">
            <mxPoint x="580" y="320" as="sourcePoint" />
            <mxPoint x="450" y="220" as="targetPoint" />
          </mxGeometry>
        </mxCell>
        <mxCell id="BXApnJyH0IZ3J1MoyKJh-49" value="" style="endArrow=classic;html=1;rounded=0;entryX=0;entryY=1;entryDx=0;entryDy=0;exitX=1;exitY=0.3333333333333333;exitDx=0;exitDy=0;exitPerimeter=0;" parent="1" source="BXApnJyH0IZ3J1MoyKJh-1" target="BXApnJyH0IZ3J1MoyKJh-42" edge="1">
          <mxGeometry width="50" height="50" relative="1" as="geometry">
            <mxPoint x="580" y="320" as="sourcePoint" />
            <mxPoint x="450" y="220" as="targetPoint" />
          </mxGeometry>
        </mxCell>
        <mxCell id="BXApnJyH0IZ3J1MoyKJh-50" value="" style="endArrow=classic;html=1;rounded=0;entryX=0;entryY=0.5;entryDx=0;entryDy=0;exitX=1;exitY=0.3333333333333333;exitDx=0;exitDy=0;exitPerimeter=0;" parent="1" source="BXApnJyH0IZ3J1MoyKJh-1" target="BXApnJyH0IZ3J1MoyKJh-43" edge="1">
          <mxGeometry width="50" height="50" relative="1" as="geometry">
            <mxPoint x="580" y="320" as="sourcePoint" />
            <mxPoint x="450" y="220" as="targetPoint" />
          </mxGeometry>
        </mxCell>
        <mxCell id="BXApnJyH0IZ3J1MoyKJh-51" value="" style="endArrow=classic;html=1;rounded=0;entryX=0;entryY=0.5;entryDx=0;entryDy=0;exitX=1;exitY=0.3333333333333333;exitDx=0;exitDy=0;exitPerimeter=0;" parent="1" source="BXApnJyH0IZ3J1MoyKJh-1" target="BXApnJyH0IZ3J1MoyKJh-44" edge="1">
          <mxGeometry width="50" height="50" relative="1" as="geometry">
            <mxPoint x="580" y="320" as="sourcePoint" />
            <mxPoint x="450" y="220" as="targetPoint" />
          </mxGeometry>
        </mxCell>
        <mxCell id="BXApnJyH0IZ3J1MoyKJh-62" value="" style="endArrow=classic;html=1;rounded=0;entryX=0.5;entryY=1;entryDx=0;entryDy=0;exitX=0;exitY=0.3333333333333333;exitDx=0;exitDy=0;exitPerimeter=0;" parent="1" source="BXApnJyH0IZ3J1MoyKJh-1" target="BXApnJyH0IZ3J1MoyKJh-37" edge="1">
          <mxGeometry width="50" height="50" relative="1" as="geometry">
            <mxPoint x="380" y="80" as="sourcePoint" />
            <mxPoint x="430" y="30" as="targetPoint" />
          </mxGeometry>
        </mxCell>
        <mxCell id="BXApnJyH0IZ3J1MoyKJh-63" value="" style="endArrow=classic;html=1;rounded=0;entryX=1;entryY=1;entryDx=0;entryDy=0;exitX=0;exitY=0.3333333333333333;exitDx=0;exitDy=0;exitPerimeter=0;" parent="1" source="BXApnJyH0IZ3J1MoyKJh-1" target="BXApnJyH0IZ3J1MoyKJh-3" edge="1">
          <mxGeometry width="50" height="50" relative="1" as="geometry">
            <mxPoint x="380" y="80" as="sourcePoint" />
            <mxPoint x="430" y="30" as="targetPoint" />
          </mxGeometry>
        </mxCell>
        <mxCell id="BXApnJyH0IZ3J1MoyKJh-64" value="" style="endArrow=classic;html=1;rounded=0;entryX=1;entryY=0.5;entryDx=0;entryDy=0;exitX=0;exitY=0.3333333333333333;exitDx=0;exitDy=0;exitPerimeter=0;" parent="1" source="BXApnJyH0IZ3J1MoyKJh-1" target="BXApnJyH0IZ3J1MoyKJh-4" edge="1">
          <mxGeometry width="50" height="50" relative="1" as="geometry">
            <mxPoint x="380" y="80" as="sourcePoint" />
            <mxPoint x="430" y="30" as="targetPoint" />
          </mxGeometry>
        </mxCell>
        <mxCell id="BXApnJyH0IZ3J1MoyKJh-79" value="Nhập username, password" style="ellipse;whiteSpace=wrap;html=1;" parent="1" vertex="1">
          <mxGeometry x="440" y="-185" width="110" height="50" as="geometry" />
        </mxCell>
        <mxCell id="BXApnJyH0IZ3J1MoyKJh-80" value="Xác thực username, password" style="ellipse;whiteSpace=wrap;html=1;" parent="1" vertex="1">
          <mxGeometry x="280" y="-180" width="137.13" height="40" as="geometry" />
        </mxCell>
        <mxCell id="BXApnJyH0IZ3J1MoyKJh-81" value="Trả kết quả xác thực" style="ellipse;whiteSpace=wrap;html=1;" parent="1" vertex="1">
          <mxGeometry x="205" y="-120" width="109.06" height="40" as="geometry" />
        </mxCell>
        <mxCell id="BXApnJyH0IZ3J1MoyKJh-88" value="Tìm Kiếm Sản Phẩm" style="ellipse;whiteSpace=wrap;html=1;" parent="1" vertex="1">
          <mxGeometry x="580" y="-190" width="100" height="50" as="geometry" />
        </mxCell>
        <mxCell id="BXApnJyH0IZ3J1MoyKJh-89" value="Thêm Sản Phẩm" style="ellipse;whiteSpace=wrap;html=1;" parent="1" vertex="1">
          <mxGeometry x="720" y="-230" width="100" height="50" as="geometry" />
        </mxCell>
        <mxCell id="BXApnJyH0IZ3J1MoyKJh-90" value="Sửa&amp;nbsp;Sản Phẩm" style="ellipse;whiteSpace=wrap;html=1;" parent="1" vertex="1">
          <mxGeometry x="850" y="-210" width="100" height="50" as="geometry" />
        </mxCell>
        <mxCell id="BXApnJyH0IZ3J1MoyKJh-91" value="" style="endArrow=classic;html=1;rounded=0;dashed=1;exitX=1;exitY=0.5;exitDx=0;exitDy=0;" parent="1" source="BXApnJyH0IZ3J1MoyKJh-88" target="BXApnJyH0IZ3J1MoyKJh-41" edge="1">
          <mxGeometry relative="1" as="geometry">
            <mxPoint x="1020" y="-170" as="sourcePoint" />
            <mxPoint x="970" y="-270" as="targetPoint" />
          </mxGeometry>
        </mxCell>
        <mxCell id="BXApnJyH0IZ3J1MoyKJh-92" value="&amp;lt;&amp;lt;extend&amp;gt;&amp;gt;" style="edgeLabel;resizable=0;html=1;align=center;verticalAlign=middle;" parent="BXApnJyH0IZ3J1MoyKJh-91" connectable="0" vertex="1">
          <mxGeometry relative="1" as="geometry" />
        </mxCell>
        <mxCell id="BXApnJyH0IZ3J1MoyKJh-93" value="" style="endArrow=classic;html=1;rounded=0;dashed=1;exitX=0.5;exitY=1;exitDx=0;exitDy=0;" parent="1" source="BXApnJyH0IZ3J1MoyKJh-89" target="BXApnJyH0IZ3J1MoyKJh-41" edge="1">
          <mxGeometry relative="1" as="geometry">
            <mxPoint x="1020" y="-170" as="sourcePoint" />
            <mxPoint x="970" y="-270" as="targetPoint" />
          </mxGeometry>
        </mxCell>
        <mxCell id="BXApnJyH0IZ3J1MoyKJh-94" value="&amp;lt;&amp;lt;extend&amp;gt;&amp;gt;" style="edgeLabel;resizable=0;html=1;align=center;verticalAlign=middle;" parent="BXApnJyH0IZ3J1MoyKJh-93" connectable="0" vertex="1">
          <mxGeometry relative="1" as="geometry" />
        </mxCell>
        <mxCell id="BXApnJyH0IZ3J1MoyKJh-95" value="" style="endArrow=classic;html=1;rounded=0;dashed=1;exitX=0;exitY=1;exitDx=0;exitDy=0;entryX=1;entryY=0;entryDx=0;entryDy=0;" parent="1" source="BXApnJyH0IZ3J1MoyKJh-90" target="BXApnJyH0IZ3J1MoyKJh-41" edge="1">
          <mxGeometry relative="1" as="geometry">
            <mxPoint x="1020" y="-170" as="sourcePoint" />
            <mxPoint x="870" y="-103" as="targetPoint" />
          </mxGeometry>
        </mxCell>
        <mxCell id="BXApnJyH0IZ3J1MoyKJh-96" value="&amp;lt;&amp;lt;extend&amp;gt;&amp;gt;" style="edgeLabel;resizable=0;html=1;align=center;verticalAlign=middle;" parent="BXApnJyH0IZ3J1MoyKJh-95" connectable="0" vertex="1">
          <mxGeometry relative="1" as="geometry" />
        </mxCell>
        <mxCell id="BXApnJyH0IZ3J1MoyKJh-97" value="Xem Chi Tiết Đơn Hàng" style="ellipse;whiteSpace=wrap;html=1;" parent="1" vertex="1">
          <mxGeometry x="880" y="-86.5" width="100" height="50" as="geometry" />
        </mxCell>
        <mxCell id="BXApnJyH0IZ3J1MoyKJh-98" value="Cập Nhật Trạng Thái Đơn Hàng" style="ellipse;whiteSpace=wrap;html=1;" parent="1" vertex="1">
          <mxGeometry x="970" y="-46.5" width="100" height="50" as="geometry" />
        </mxCell>
        <mxCell id="BXApnJyH0IZ3J1MoyKJh-99" value="" style="endArrow=classic;html=1;rounded=0;dashed=1;entryX=1;entryY=0.5;entryDx=0;entryDy=0;exitX=0;exitY=0.5;exitDx=0;exitDy=0;" parent="1" source="BXApnJyH0IZ3J1MoyKJh-97" target="BXApnJyH0IZ3J1MoyKJh-42" edge="1">
          <mxGeometry relative="1" as="geometry">
            <mxPoint x="1020" y="-36.5" as="sourcePoint" />
            <mxPoint x="795" y="-30.5" as="targetPoint" />
          </mxGeometry>
        </mxCell>
        <mxCell id="BXApnJyH0IZ3J1MoyKJh-100" value="&amp;lt;&amp;lt;extend&amp;gt;&amp;gt;" style="edgeLabel;resizable=0;html=1;align=center;verticalAlign=middle;" parent="BXApnJyH0IZ3J1MoyKJh-99" connectable="0" vertex="1">
          <mxGeometry relative="1" as="geometry" />
        </mxCell>
        <mxCell id="BXApnJyH0IZ3J1MoyKJh-101" value="Thêm Loại" style="ellipse;whiteSpace=wrap;html=1;" parent="1" vertex="1">
          <mxGeometry x="1020" y="32.5" width="80" height="50" as="geometry" />
        </mxCell>
        <mxCell id="BXApnJyH0IZ3J1MoyKJh-102" value="Sửa Loại" style="ellipse;whiteSpace=wrap;html=1;" parent="1" vertex="1">
          <mxGeometry x="910" y="3.5" width="100" height="40" as="geometry" />
        </mxCell>
        <mxCell id="BXApnJyH0IZ3J1MoyKJh-103" value="Xóa Loại" style="ellipse;whiteSpace=wrap;html=1;" parent="1" vertex="1">
          <mxGeometry x="910" y="68.5" width="100" height="40" as="geometry" />
        </mxCell>
        <mxCell id="BXApnJyH0IZ3J1MoyKJh-104" value="" style="endArrow=classic;html=1;rounded=0;dashed=1;entryX=1;entryY=0.5;entryDx=0;entryDy=0;exitX=0;exitY=0.5;exitDx=0;exitDy=0;" parent="1" source="BXApnJyH0IZ3J1MoyKJh-101" target="BXApnJyH0IZ3J1MoyKJh-43" edge="1">
          <mxGeometry relative="1" as="geometry">
            <mxPoint x="970" y="-13.5" as="sourcePoint" />
            <mxPoint x="820" y="53.5" as="targetPoint" />
          </mxGeometry>
        </mxCell>
        <mxCell id="BXApnJyH0IZ3J1MoyKJh-105" value="&amp;lt;&amp;lt;extend&amp;gt;&amp;gt;" style="edgeLabel;resizable=0;html=1;align=center;verticalAlign=middle;" parent="BXApnJyH0IZ3J1MoyKJh-104" connectable="0" vertex="1">
          <mxGeometry relative="1" as="geometry" />
        </mxCell>
        <mxCell id="BXApnJyH0IZ3J1MoyKJh-106" value="" style="endArrow=classic;html=1;rounded=0;dashed=1;entryX=1;entryY=0.5;entryDx=0;entryDy=0;exitX=0;exitY=0.5;exitDx=0;exitDy=0;" parent="1" source="BXApnJyH0IZ3J1MoyKJh-102" target="BXApnJyH0IZ3J1MoyKJh-43" edge="1">
          <mxGeometry relative="1" as="geometry">
            <mxPoint x="970" y="-13.5" as="sourcePoint" />
            <mxPoint x="820" y="53.5" as="targetPoint" />
          </mxGeometry>
        </mxCell>
        <mxCell id="BXApnJyH0IZ3J1MoyKJh-107" value="&amp;lt;&amp;lt;extend&amp;gt;&amp;gt;" style="edgeLabel;resizable=0;html=1;align=center;verticalAlign=middle;" parent="BXApnJyH0IZ3J1MoyKJh-106" connectable="0" vertex="1">
          <mxGeometry relative="1" as="geometry" />
        </mxCell>
        <mxCell id="BXApnJyH0IZ3J1MoyKJh-108" value="" style="endArrow=classic;html=1;rounded=0;dashed=1;entryX=1;entryY=0.5;entryDx=0;entryDy=0;exitX=0;exitY=0.5;exitDx=0;exitDy=0;" parent="1" source="BXApnJyH0IZ3J1MoyKJh-103" target="BXApnJyH0IZ3J1MoyKJh-43" edge="1">
          <mxGeometry relative="1" as="geometry">
            <mxPoint x="970" y="-13.5" as="sourcePoint" />
            <mxPoint x="820" y="53.5" as="targetPoint" />
          </mxGeometry>
        </mxCell>
        <mxCell id="BXApnJyH0IZ3J1MoyKJh-109" value="&amp;lt;&amp;lt;extend&amp;gt;&amp;gt;" style="edgeLabel;resizable=0;html=1;align=center;verticalAlign=middle;" parent="BXApnJyH0IZ3J1MoyKJh-108" connectable="0" vertex="1">
          <mxGeometry relative="1" as="geometry" />
        </mxCell>
        <mxCell id="BXApnJyH0IZ3J1MoyKJh-110" value="Quản Lý &lt;br&gt;Thương Hiệu" style="ellipse;whiteSpace=wrap;html=1;" parent="1" vertex="1">
          <mxGeometry x="730" y="114.75" width="100" height="50" as="geometry" />
        </mxCell>
        <mxCell id="BXApnJyH0IZ3J1MoyKJh-111" value="Thêm &lt;br&gt;Thương Hiệu" style="ellipse;whiteSpace=wrap;html=1;" parent="1" vertex="1">
          <mxGeometry x="920" y="115.25" width="100" height="50" as="geometry" />
        </mxCell>
        <mxCell id="BXApnJyH0IZ3J1MoyKJh-112" value="Sửa &lt;br&gt;Thương Hiệu" style="ellipse;whiteSpace=wrap;html=1;" parent="1" vertex="1">
          <mxGeometry x="880" y="205.25" width="100" height="50" as="geometry" />
        </mxCell>
        <mxCell id="BXApnJyH0IZ3J1MoyKJh-113" value="Xóa &lt;br&gt;Thương Hiệu" style="ellipse;whiteSpace=wrap;html=1;" parent="1" vertex="1">
          <mxGeometry x="787" y="205.25" width="83" height="50" as="geometry" />
        </mxCell>
        <mxCell id="BXApnJyH0IZ3J1MoyKJh-114" value="" style="endArrow=classic;html=1;rounded=0;dashed=1;entryX=1;entryY=0.5;entryDx=0;entryDy=0;exitX=0;exitY=0.5;exitDx=0;exitDy=0;" parent="1" source="BXApnJyH0IZ3J1MoyKJh-111" target="BXApnJyH0IZ3J1MoyKJh-110" edge="1">
          <mxGeometry relative="1" as="geometry">
            <mxPoint x="987" y="228.75" as="sourcePoint" />
            <mxPoint x="787" y="287.75" as="targetPoint" />
          </mxGeometry>
        </mxCell>
        <mxCell id="BXApnJyH0IZ3J1MoyKJh-115" value="&amp;lt;&amp;lt;extend&amp;gt;&amp;gt;" style="edgeLabel;resizable=0;html=1;align=center;verticalAlign=middle;" parent="BXApnJyH0IZ3J1MoyKJh-114" connectable="0" vertex="1">
          <mxGeometry relative="1" as="geometry" />
        </mxCell>
        <mxCell id="BXApnJyH0IZ3J1MoyKJh-116" value="" style="endArrow=classic;html=1;rounded=0;dashed=1;entryX=1;entryY=1;entryDx=0;entryDy=0;exitX=0.5;exitY=0;exitDx=0;exitDy=0;" parent="1" source="BXApnJyH0IZ3J1MoyKJh-112" target="BXApnJyH0IZ3J1MoyKJh-110" edge="1">
          <mxGeometry relative="1" as="geometry">
            <mxPoint x="987" y="228.75" as="sourcePoint" />
            <mxPoint x="787" y="287.75" as="targetPoint" />
          </mxGeometry>
        </mxCell>
        <mxCell id="BXApnJyH0IZ3J1MoyKJh-117" value="&amp;lt;&amp;lt;extend&amp;gt;&amp;gt;" style="edgeLabel;resizable=0;html=1;align=center;verticalAlign=middle;" parent="BXApnJyH0IZ3J1MoyKJh-116" connectable="0" vertex="1">
          <mxGeometry relative="1" as="geometry" />
        </mxCell>
        <mxCell id="BXApnJyH0IZ3J1MoyKJh-118" value="" style="endArrow=classic;html=1;rounded=0;dashed=1;entryX=0.5;entryY=1;entryDx=0;entryDy=0;exitX=0.5;exitY=0;exitDx=0;exitDy=0;" parent="1" source="BXApnJyH0IZ3J1MoyKJh-113" target="BXApnJyH0IZ3J1MoyKJh-110" edge="1">
          <mxGeometry relative="1" as="geometry">
            <mxPoint x="987" y="228.75" as="sourcePoint" />
            <mxPoint x="787" y="287.75" as="targetPoint" />
          </mxGeometry>
        </mxCell>
        <mxCell id="BXApnJyH0IZ3J1MoyKJh-119" value="&amp;lt;&amp;lt;extend&amp;gt;&amp;gt;" style="edgeLabel;resizable=0;html=1;align=center;verticalAlign=middle;" parent="BXApnJyH0IZ3J1MoyKJh-118" connectable="0" vertex="1">
          <mxGeometry relative="1" as="geometry" />
        </mxCell>
        <mxCell id="BXApnJyH0IZ3J1MoyKJh-120" value="" style="endArrow=classic;html=1;rounded=0;entryX=0;entryY=0.5;entryDx=0;entryDy=0;exitX=1;exitY=0.3333333333333333;exitDx=0;exitDy=0;exitPerimeter=0;" parent="1" source="BXApnJyH0IZ3J1MoyKJh-1" target="BXApnJyH0IZ3J1MoyKJh-110" edge="1">
          <mxGeometry width="50" height="50" relative="1" as="geometry">
            <mxPoint x="580" y="320" as="sourcePoint" />
            <mxPoint x="450" y="220" as="targetPoint" />
          </mxGeometry>
        </mxCell>
        <mxCell id="BXApnJyH0IZ3J1MoyKJh-121" value="Tìm Kiếm Tài Khoản" style="ellipse;whiteSpace=wrap;html=1;" parent="1" vertex="1">
          <mxGeometry x="770" y="355" width="100" height="50" as="geometry" />
        </mxCell>
        <mxCell id="BXApnJyH0IZ3J1MoyKJh-122" value="Sửa Tài Khoản" style="ellipse;whiteSpace=wrap;html=1;" parent="1" vertex="1">
          <mxGeometry x="650" y="355" width="100" height="50" as="geometry" />
        </mxCell>
        <mxCell id="BXApnJyH0IZ3J1MoyKJh-123" value="Khoá Tài Khoản" style="ellipse;whiteSpace=wrap;html=1;" parent="1" vertex="1">
          <mxGeometry x="530" y="355" width="100" height="50" as="geometry" />
        </mxCell>
        <mxCell id="BXApnJyH0IZ3J1MoyKJh-124" value="" style="endArrow=classic;html=1;rounded=0;dashed=1;entryX=0.5;entryY=1;entryDx=0;entryDy=0;exitX=0.5;exitY=0;exitDx=0;exitDy=0;" parent="1" source="BXApnJyH0IZ3J1MoyKJh-121" target="BXApnJyH0IZ3J1MoyKJh-44" edge="1">
          <mxGeometry relative="1" as="geometry">
            <mxPoint x="1050" y="230" as="sourcePoint" />
            <mxPoint x="840" y="238" as="targetPoint" />
          </mxGeometry>
        </mxCell>
        <mxCell id="BXApnJyH0IZ3J1MoyKJh-125" value="&amp;lt;&amp;lt;extend&amp;gt;&amp;gt;" style="edgeLabel;resizable=0;html=1;align=center;verticalAlign=middle;" parent="BXApnJyH0IZ3J1MoyKJh-124" connectable="0" vertex="1">
          <mxGeometry relative="1" as="geometry" />
        </mxCell>
        <mxCell id="BXApnJyH0IZ3J1MoyKJh-126" value="" style="endArrow=classic;html=1;rounded=0;dashed=1;exitX=0.5;exitY=0;exitDx=0;exitDy=0;entryX=0.5;entryY=1;entryDx=0;entryDy=0;" parent="1" source="BXApnJyH0IZ3J1MoyKJh-122" target="BXApnJyH0IZ3J1MoyKJh-44" edge="1">
          <mxGeometry relative="1" as="geometry">
            <mxPoint x="1050" y="230" as="sourcePoint" />
            <mxPoint x="870" y="160" as="targetPoint" />
          </mxGeometry>
        </mxCell>
        <mxCell id="BXApnJyH0IZ3J1MoyKJh-127" value="&amp;lt;&amp;lt;extend&amp;gt;&amp;gt;" style="edgeLabel;resizable=0;html=1;align=center;verticalAlign=middle;" parent="BXApnJyH0IZ3J1MoyKJh-126" connectable="0" vertex="1">
          <mxGeometry relative="1" as="geometry" />
        </mxCell>
        <mxCell id="BXApnJyH0IZ3J1MoyKJh-128" value="" style="endArrow=classic;html=1;rounded=0;dashed=1;entryX=0.5;entryY=1;entryDx=0;entryDy=0;exitX=0.5;exitY=0;exitDx=0;exitDy=0;" parent="1" source="BXApnJyH0IZ3J1MoyKJh-123" target="BXApnJyH0IZ3J1MoyKJh-44" edge="1">
          <mxGeometry relative="1" as="geometry">
            <mxPoint x="1050" y="230" as="sourcePoint" />
            <mxPoint x="840" y="238" as="targetPoint" />
          </mxGeometry>
        </mxCell>
        <mxCell id="BXApnJyH0IZ3J1MoyKJh-129" value="&amp;lt;&amp;lt;extend&amp;gt;&amp;gt;" style="edgeLabel;resizable=0;html=1;align=center;verticalAlign=middle;" parent="BXApnJyH0IZ3J1MoyKJh-128" connectable="0" vertex="1">
          <mxGeometry relative="1" as="geometry" />
        </mxCell>
        <mxCell id="BXApnJyH0IZ3J1MoyKJh-162" value="Tìm Kiếm &lt;br&gt;Thương Hiệu" style="ellipse;whiteSpace=wrap;html=1;" parent="1" vertex="1">
          <mxGeometry x="670" y="205.25" width="90" height="50" as="geometry" />
        </mxCell>
        <mxCell id="BXApnJyH0IZ3J1MoyKJh-163" value="" style="endArrow=classic;html=1;rounded=0;dashed=1;entryX=0.5;entryY=1;entryDx=0;entryDy=0;exitX=0.5;exitY=0;exitDx=0;exitDy=0;" parent="1" source="BXApnJyH0IZ3J1MoyKJh-162" target="BXApnJyH0IZ3J1MoyKJh-110" edge="1">
          <mxGeometry relative="1" as="geometry">
            <mxPoint x="880" y="285.75" as="sourcePoint" />
            <mxPoint x="690" y="310.75" as="targetPoint" />
          </mxGeometry>
        </mxCell>
        <mxCell id="BXApnJyH0IZ3J1MoyKJh-164" value="&amp;lt;&amp;lt;extend&amp;gt;&amp;gt;" style="edgeLabel;resizable=0;html=1;align=center;verticalAlign=middle;" parent="BXApnJyH0IZ3J1MoyKJh-163" connectable="0" vertex="1">
          <mxGeometry relative="1" as="geometry" />
        </mxCell>
        <mxCell id="BXApnJyH0IZ3J1MoyKJh-165" value="Xoá Sản Phẩm" style="ellipse;whiteSpace=wrap;html=1;" parent="1" vertex="1">
          <mxGeometry x="910" y="-150" width="100" height="50" as="geometry" />
        </mxCell>
        <mxCell id="BXApnJyH0IZ3J1MoyKJh-166" value="" style="endArrow=classic;html=1;rounded=0;dashed=1;entryX=1;entryY=0.5;entryDx=0;entryDy=0;exitX=0;exitY=0.5;exitDx=0;exitDy=0;" parent="1" source="BXApnJyH0IZ3J1MoyKJh-165" target="BXApnJyH0IZ3J1MoyKJh-41" edge="1">
          <mxGeometry relative="1" as="geometry">
            <mxPoint x="970" y="-171" as="sourcePoint" />
            <mxPoint x="780" y="-146" as="targetPoint" />
          </mxGeometry>
        </mxCell>
        <mxCell id="BXApnJyH0IZ3J1MoyKJh-167" value="&amp;lt;&amp;lt;extend&amp;gt;&amp;gt;" style="edgeLabel;resizable=0;html=1;align=center;verticalAlign=middle;" parent="BXApnJyH0IZ3J1MoyKJh-166" connectable="0" vertex="1">
          <mxGeometry relative="1" as="geometry" />
        </mxCell>
        <mxCell id="BXApnJyH0IZ3J1MoyKJh-171" value="" style="endArrow=classic;html=1;rounded=0;dashed=1;entryX=0;entryY=0.5;entryDx=0;entryDy=0;exitX=1;exitY=0.5;exitDx=0;exitDy=0;" parent="1" source="BXApnJyH0IZ3J1MoyKJh-42" target="BXApnJyH0IZ3J1MoyKJh-98" edge="1">
          <mxGeometry relative="1" as="geometry">
            <mxPoint x="850" y="-16.5" as="sourcePoint" />
            <mxPoint x="1060" y="-6.5" as="targetPoint" />
          </mxGeometry>
        </mxCell>
        <mxCell id="BXApnJyH0IZ3J1MoyKJh-172" value="&amp;lt;&amp;lt;include&amp;gt;&amp;gt;" style="edgeLabel;resizable=0;html=1;align=center;verticalAlign=middle;" parent="BXApnJyH0IZ3J1MoyKJh-171" connectable="0" vertex="1">
          <mxGeometry relative="1" as="geometry" />
        </mxCell>
        <mxCell id="BXApnJyH0IZ3J1MoyKJh-174" value="Quản Lý Thông Tin Cá Nhân" style="ellipse;whiteSpace=wrap;html=1;" parent="1" vertex="1">
          <mxGeometry x="309.06" y="193.5" width="120" height="60" as="geometry" />
        </mxCell>
        <mxCell id="BXApnJyH0IZ3J1MoyKJh-175" value="" style="endArrow=classic;html=1;rounded=0;exitX=0;exitY=0.3333333333333333;exitDx=0;exitDy=0;exitPerimeter=0;entryX=1;entryY=0;entryDx=0;entryDy=0;" parent="1" source="BXApnJyH0IZ3J1MoyKJh-1" target="BXApnJyH0IZ3J1MoyKJh-174" edge="1">
          <mxGeometry width="50" height="50" relative="1" as="geometry">
            <mxPoint x="590.59" y="340.0033333333335" as="sourcePoint" />
            <mxPoint x="400.00313094051205" y="229.28970993107663" as="targetPoint" />
          </mxGeometry>
        </mxCell>
        <mxCell id="BXApnJyH0IZ3J1MoyKJh-176" value="Cập nhật thông tin" style="ellipse;whiteSpace=wrap;html=1;" parent="1" vertex="1">
          <mxGeometry x="240" y="310" width="100" height="50" as="geometry" />
        </mxCell>
        <mxCell id="BXApnJyH0IZ3J1MoyKJh-179" value="Xem thông tin" style="ellipse;whiteSpace=wrap;html=1;" parent="1" vertex="1">
          <mxGeometry x="110" y="204.25" width="100" height="38.5" as="geometry" />
        </mxCell>
        <mxCell id="BXApnJyH0IZ3J1MoyKJh-182" value="Địa Chỉ" style="ellipse;whiteSpace=wrap;html=1;" parent="1" vertex="1">
          <mxGeometry x="90" y="270" width="90" height="40" as="geometry" />
        </mxCell>
        <mxCell id="BXApnJyH0IZ3J1MoyKJh-183" value="Email" style="ellipse;whiteSpace=wrap;html=1;" parent="1" vertex="1">
          <mxGeometry x="152" y="380" width="75" height="36.5" as="geometry" />
        </mxCell>
        <mxCell id="BXApnJyH0IZ3J1MoyKJh-187" value="Tên" style="ellipse;whiteSpace=wrap;html=1;" parent="1" vertex="1">
          <mxGeometry x="50" y="315" width="65" height="40" as="geometry" />
        </mxCell>
        <mxCell id="BXApnJyH0IZ3J1MoyKJh-191" value="Xác Thực Email" style="ellipse;whiteSpace=wrap;html=1;" parent="1" vertex="1">
          <mxGeometry x="280" y="410" width="90" height="50" as="geometry" />
        </mxCell>
        <mxCell id="qGPRdpJsxHZYD1-EqU9z-1" value="&amp;lt;&amp;lt;extend&amp;gt;&amp;gt;" style="edgeLabel;resizable=0;html=1;align=center;verticalAlign=middle;" parent="1" connectable="0" vertex="1">
          <mxGeometry x="969.9988055548188" y="609.9955242113679" as="geometry" />
        </mxCell>
        <mxCell id="RqBdnVC8iXb9I1jV7ewL-8" value="" style="endArrow=classic;html=1;rounded=0;dashed=1;entryX=1;entryY=1;entryDx=0;entryDy=0;exitX=0;exitY=0;exitDx=0;exitDy=0;" parent="1" source="BXApnJyH0IZ3J1MoyKJh-4" target="BXApnJyH0IZ3J1MoyKJh-5" edge="1">
          <mxGeometry relative="1" as="geometry">
            <mxPoint x="967" y="-170" as="sourcePoint" />
            <mxPoint x="1169" y="-171" as="targetPoint" />
          </mxGeometry>
        </mxCell>
        <mxCell id="RqBdnVC8iXb9I1jV7ewL-9" value="&amp;lt;&amp;lt;include&amp;gt;&amp;gt;" style="edgeLabel;resizable=0;html=1;align=center;verticalAlign=middle;" parent="RqBdnVC8iXb9I1jV7ewL-8" connectable="0" vertex="1">
          <mxGeometry relative="1" as="geometry" />
        </mxCell>
        <mxCell id="RqBdnVC8iXb9I1jV7ewL-10" value="" style="endArrow=classic;html=1;rounded=0;dashed=1;entryX=1;entryY=0.5;entryDx=0;entryDy=0;exitX=0.044;exitY=0.3;exitDx=0;exitDy=0;exitPerimeter=0;" parent="1" source="BXApnJyH0IZ3J1MoyKJh-4" target="BXApnJyH0IZ3J1MoyKJh-6" edge="1">
          <mxGeometry relative="1" as="geometry">
            <mxPoint x="252" y="128" as="sourcePoint" />
            <mxPoint x="137" y="33" as="targetPoint" />
          </mxGeometry>
        </mxCell>
        <mxCell id="RqBdnVC8iXb9I1jV7ewL-11" value="&amp;lt;&amp;lt;include&amp;gt;&amp;gt;" style="edgeLabel;resizable=0;html=1;align=center;verticalAlign=middle;" parent="RqBdnVC8iXb9I1jV7ewL-10" connectable="0" vertex="1">
          <mxGeometry relative="1" as="geometry" />
        </mxCell>
        <mxCell id="RqBdnVC8iXb9I1jV7ewL-14" value="" style="endArrow=classic;html=1;rounded=0;dashed=1;entryX=0;entryY=0.5;entryDx=0;entryDy=0;exitX=0.5;exitY=1;exitDx=0;exitDy=0;" parent="1" source="BXApnJyH0IZ3J1MoyKJh-183" target="BXApnJyH0IZ3J1MoyKJh-191" edge="1">
          <mxGeometry relative="1" as="geometry">
            <mxPoint x="382" y="192" as="sourcePoint" />
            <mxPoint x="267" y="97" as="targetPoint" />
          </mxGeometry>
        </mxCell>
        <mxCell id="RqBdnVC8iXb9I1jV7ewL-15" value="&amp;lt;&amp;lt;include&amp;gt;&amp;gt;" style="edgeLabel;resizable=0;html=1;align=center;verticalAlign=middle;" parent="RqBdnVC8iXb9I1jV7ewL-14" connectable="0" vertex="1">
          <mxGeometry relative="1" as="geometry" />
        </mxCell>
        <mxCell id="RqBdnVC8iXb9I1jV7ewL-16" value="" style="endArrow=classic;html=1;rounded=0;dashed=1;entryX=1;entryY=0.5;entryDx=0;entryDy=0;exitX=0.5;exitY=0;exitDx=0;exitDy=0;" parent="1" source="BXApnJyH0IZ3J1MoyKJh-37" target="BXApnJyH0IZ3J1MoyKJh-81" edge="1">
          <mxGeometry relative="1" as="geometry">
            <mxPoint x="180.13" y="184" as="sourcePoint" />
            <mxPoint x="65.13" y="89" as="targetPoint" />
          </mxGeometry>
        </mxCell>
        <mxCell id="RqBdnVC8iXb9I1jV7ewL-17" value="&amp;lt;&amp;lt;include&amp;gt;&amp;gt;" style="edgeLabel;resizable=0;html=1;align=center;verticalAlign=middle;" parent="RqBdnVC8iXb9I1jV7ewL-16" connectable="0" vertex="1">
          <mxGeometry relative="1" as="geometry" />
        </mxCell>
        <mxCell id="RqBdnVC8iXb9I1jV7ewL-18" value="" style="endArrow=classic;html=1;rounded=0;dashed=1;entryX=1;entryY=1;entryDx=0;entryDy=0;exitX=0.5;exitY=0;exitDx=0;exitDy=0;" parent="1" source="BXApnJyH0IZ3J1MoyKJh-37" target="BXApnJyH0IZ3J1MoyKJh-80" edge="1">
          <mxGeometry relative="1" as="geometry">
            <mxPoint x="190.13" y="194" as="sourcePoint" />
            <mxPoint x="75.13" y="99" as="targetPoint" />
          </mxGeometry>
        </mxCell>
        <mxCell id="RqBdnVC8iXb9I1jV7ewL-19" value="&amp;lt;&amp;lt;include&amp;gt;&amp;gt;" style="edgeLabel;resizable=0;html=1;align=center;verticalAlign=middle;rotation=60;" parent="RqBdnVC8iXb9I1jV7ewL-18" connectable="0" vertex="1">
          <mxGeometry relative="1" as="geometry" />
        </mxCell>
        <mxCell id="RqBdnVC8iXb9I1jV7ewL-20" value="" style="endArrow=classic;html=1;rounded=0;dashed=1;entryX=0.5;entryY=1;entryDx=0;entryDy=0;exitX=0.5;exitY=0;exitDx=0;exitDy=0;" parent="1" source="BXApnJyH0IZ3J1MoyKJh-37" target="BXApnJyH0IZ3J1MoyKJh-79" edge="1">
          <mxGeometry relative="1" as="geometry">
            <mxPoint x="200.13" y="204" as="sourcePoint" />
            <mxPoint x="85.13" y="109" as="targetPoint" />
          </mxGeometry>
        </mxCell>
        <mxCell id="RqBdnVC8iXb9I1jV7ewL-21" value="&amp;lt;&amp;lt;include&amp;gt;&amp;gt;" style="edgeLabel;resizable=0;html=1;align=center;verticalAlign=middle;rotation=-50;" parent="RqBdnVC8iXb9I1jV7ewL-20" connectable="0" vertex="1">
          <mxGeometry relative="1" as="geometry" />
        </mxCell>
        <mxCell id="RqBdnVC8iXb9I1jV7ewL-22" value="" style="endArrow=classic;html=1;rounded=0;dashed=1;entryX=0;entryY=1;entryDx=0;entryDy=0;exitX=1;exitY=0.5;exitDx=0;exitDy=0;" parent="1" source="BXApnJyH0IZ3J1MoyKJh-16" target="BXApnJyH0IZ3J1MoyKJh-4" edge="1">
          <mxGeometry relative="1" as="geometry">
            <mxPoint x="482" y="394" as="sourcePoint" />
            <mxPoint x="230" y="277" as="targetPoint" />
          </mxGeometry>
        </mxCell>
        <mxCell id="RqBdnVC8iXb9I1jV7ewL-23" value="&amp;lt;&amp;lt;extend&amp;gt;&amp;gt;" style="edgeLabel;resizable=0;html=1;align=center;verticalAlign=middle;" parent="RqBdnVC8iXb9I1jV7ewL-22" connectable="0" vertex="1">
          <mxGeometry relative="1" as="geometry" />
        </mxCell>
        <mxCell id="RqBdnVC8iXb9I1jV7ewL-25" value="" style="endArrow=classic;html=1;rounded=0;dashed=1;entryX=0;entryY=0.5;entryDx=0;entryDy=0;exitX=1;exitY=0.5;exitDx=0;exitDy=0;" parent="1" source="BXApnJyH0IZ3J1MoyKJh-7" target="BXApnJyH0IZ3J1MoyKJh-4" edge="1">
          <mxGeometry relative="1" as="geometry">
            <mxPoint x="80" y="195" as="sourcePoint" />
            <mxPoint x="252" y="164" as="targetPoint" />
          </mxGeometry>
        </mxCell>
        <mxCell id="RqBdnVC8iXb9I1jV7ewL-26" value="&amp;lt;&amp;lt;extend&amp;gt;&amp;gt;" style="edgeLabel;resizable=0;html=1;align=center;verticalAlign=middle;" parent="RqBdnVC8iXb9I1jV7ewL-25" connectable="0" vertex="1">
          <mxGeometry relative="1" as="geometry" />
        </mxCell>
        <mxCell id="RqBdnVC8iXb9I1jV7ewL-28" value="" style="endArrow=classic;html=1;rounded=0;dashed=1;entryX=0;entryY=0.5;entryDx=0;entryDy=0;exitX=1;exitY=0.5;exitDx=0;exitDy=0;" parent="1" source="BXApnJyH0IZ3J1MoyKJh-179" target="BXApnJyH0IZ3J1MoyKJh-174" edge="1">
          <mxGeometry relative="1" as="geometry">
            <mxPoint x="190" y="224" as="sourcePoint" />
            <mxPoint x="262" y="174" as="targetPoint" />
          </mxGeometry>
        </mxCell>
        <mxCell id="RqBdnVC8iXb9I1jV7ewL-29" value="&amp;lt;&amp;lt;extend&amp;gt;&amp;gt;" style="edgeLabel;resizable=0;html=1;align=center;verticalAlign=middle;" parent="RqBdnVC8iXb9I1jV7ewL-28" connectable="0" vertex="1">
          <mxGeometry relative="1" as="geometry" />
        </mxCell>
        <mxCell id="RqBdnVC8iXb9I1jV7ewL-30" value="" style="endArrow=classic;html=1;rounded=0;dashed=1;entryX=0;entryY=1;entryDx=0;entryDy=0;exitX=0.5;exitY=0;exitDx=0;exitDy=0;" parent="1" source="BXApnJyH0IZ3J1MoyKJh-176" target="BXApnJyH0IZ3J1MoyKJh-174" edge="1">
          <mxGeometry relative="1" as="geometry">
            <mxPoint x="100" y="215" as="sourcePoint" />
            <mxPoint x="272" y="184" as="targetPoint" />
          </mxGeometry>
        </mxCell>
        <mxCell id="RqBdnVC8iXb9I1jV7ewL-31" value="&amp;lt;&amp;lt;extend&amp;gt;&amp;gt;" style="edgeLabel;resizable=0;html=1;align=center;verticalAlign=middle;" parent="RqBdnVC8iXb9I1jV7ewL-30" connectable="0" vertex="1">
          <mxGeometry relative="1" as="geometry" />
        </mxCell>
        <mxCell id="RqBdnVC8iXb9I1jV7ewL-32" value="" style="endArrow=classic;html=1;rounded=0;dashed=1;entryX=0.088;entryY=0.168;entryDx=0;entryDy=0;exitX=1;exitY=0.5;exitDx=0;exitDy=0;entryPerimeter=0;" parent="1" source="BXApnJyH0IZ3J1MoyKJh-182" target="BXApnJyH0IZ3J1MoyKJh-176" edge="1">
          <mxGeometry relative="1" as="geometry">
            <mxPoint x="110" y="225" as="sourcePoint" />
            <mxPoint x="282" y="194" as="targetPoint" />
          </mxGeometry>
        </mxCell>
        <mxCell id="RqBdnVC8iXb9I1jV7ewL-33" value="&amp;lt;&amp;lt;extend&amp;gt;&amp;gt;" style="edgeLabel;resizable=0;html=1;align=center;verticalAlign=middle;" parent="RqBdnVC8iXb9I1jV7ewL-32" connectable="0" vertex="1">
          <mxGeometry relative="1" as="geometry" />
        </mxCell>
        <mxCell id="RqBdnVC8iXb9I1jV7ewL-34" value="" style="endArrow=classic;html=1;rounded=0;dashed=1;entryX=0;entryY=0.5;entryDx=0;entryDy=0;exitX=1;exitY=0.5;exitDx=0;exitDy=0;" parent="1" source="BXApnJyH0IZ3J1MoyKJh-187" target="BXApnJyH0IZ3J1MoyKJh-176" edge="1">
          <mxGeometry relative="1" as="geometry">
            <mxPoint x="120" y="235" as="sourcePoint" />
            <mxPoint x="292" y="204" as="targetPoint" />
          </mxGeometry>
        </mxCell>
        <mxCell id="RqBdnVC8iXb9I1jV7ewL-35" value="&amp;lt;&amp;lt;extend&amp;gt;&amp;gt;" style="edgeLabel;resizable=0;html=1;align=center;verticalAlign=middle;" parent="RqBdnVC8iXb9I1jV7ewL-34" connectable="0" vertex="1">
          <mxGeometry relative="1" as="geometry" />
        </mxCell>
        <mxCell id="RqBdnVC8iXb9I1jV7ewL-36" value="" style="endArrow=classic;html=1;rounded=0;dashed=1;entryX=0;entryY=1;entryDx=0;entryDy=0;exitX=1;exitY=0;exitDx=0;exitDy=0;" parent="1" source="BXApnJyH0IZ3J1MoyKJh-183" target="BXApnJyH0IZ3J1MoyKJh-176" edge="1">
          <mxGeometry relative="1" as="geometry">
            <mxPoint x="130" y="245" as="sourcePoint" />
            <mxPoint x="302" y="214" as="targetPoint" />
          </mxGeometry>
        </mxCell>
        <mxCell id="RqBdnVC8iXb9I1jV7ewL-37" value="&amp;lt;&amp;lt;extend&amp;gt;&amp;gt;" style="edgeLabel;resizable=0;html=1;align=center;verticalAlign=middle;" parent="RqBdnVC8iXb9I1jV7ewL-36" connectable="0" vertex="1">
          <mxGeometry relative="1" as="geometry" />
        </mxCell>
        <mxCell id="RqBdnVC8iXb9I1jV7ewL-40" value="" style="endArrow=classic;html=1;rounded=0;dashed=1;entryX=0;entryY=1;entryDx=0;entryDy=0;exitX=1;exitY=0.5;exitDx=0;exitDy=0;" parent="1" source="BXApnJyH0IZ3J1MoyKJh-3" target="BXApnJyH0IZ3J1MoyKJh-37" edge="1">
          <mxGeometry relative="1" as="geometry">
            <mxPoint x="298.13" y="-45" as="sourcePoint" />
            <mxPoint x="427.13" y="-13" as="targetPoint" />
          </mxGeometry>
        </mxCell>
        <mxCell id="RqBdnVC8iXb9I1jV7ewL-41" value="&amp;lt;&amp;lt;extend&amp;gt;&amp;gt;" style="edgeLabel;resizable=0;html=1;align=center;verticalAlign=middle;rotation=15;" parent="RqBdnVC8iXb9I1jV7ewL-40" connectable="0" vertex="1">
          <mxGeometry relative="1" as="geometry" />
        </mxCell>
      </root>
    </mxGraphModel>
  </diagram>
  <diagram id="ToVIGcrcG00WZ5m64fkb" name="Giao tiếp microservices">
    <mxGraphModel dx="1551" dy="507" grid="0" gridSize="10" guides="1" tooltips="1" connect="1" arrows="1" fold="1" page="0" pageScale="1" pageWidth="850" pageHeight="1100" background="none" math="0" shadow="0">
      <root>
        <mxCell id="0" />
        <mxCell id="1" parent="0" />
        <mxCell id="lu0rfaTe1N00JWsHDoSa-76" value="" style="rounded=0;whiteSpace=wrap;html=1;" vertex="1" parent="1">
          <mxGeometry x="250" y="347" width="120" height="60" as="geometry" />
        </mxCell>
        <mxCell id="lu0rfaTe1N00JWsHDoSa-74" value="" style="rounded=0;whiteSpace=wrap;html=1;" vertex="1" parent="1">
          <mxGeometry x="52" y="147" width="888" height="470" as="geometry" />
        </mxCell>
        <mxCell id="UPZZAnZC8I9ZuelOCcJy-3" value="&lt;font style=&quot;font-size: 16px;&quot;&gt;Kubernetes Architecture&lt;/font&gt;" style="text;html=1;strokeColor=none;fillColor=none;align=center;verticalAlign=middle;whiteSpace=wrap;rounded=0;fontStyle=1;fontSize=15;" parent="1" vertex="1">
          <mxGeometry x="52" y="117" width="888" height="30" as="geometry" />
        </mxCell>
        <mxCell id="lu0rfaTe1N00JWsHDoSa-2" value="Hardware (PC)" style="rounded=0;whiteSpace=wrap;html=1;fontColor=#ffffff;fillColor=#003366;" vertex="1" parent="1">
          <mxGeometry x="52" y="597" width="888" height="20" as="geometry" />
        </mxCell>
        <mxCell id="lu0rfaTe1N00JWsHDoSa-3" value="Operating System (Windows 10 Home Single Language with WSL2)" style="rounded=0;whiteSpace=wrap;html=1;fontColor=#ffffff;fillColor=#004C99;" vertex="1" parent="1">
          <mxGeometry x="52" y="577" width="888" height="20" as="geometry" />
        </mxCell>
        <mxCell id="lu0rfaTe1N00JWsHDoSa-4" value="Container Runtime (Docker)" style="rounded=0;whiteSpace=wrap;html=1;fontColor=#ffffff;gradientColor=none;fillColor=#0066CC;" vertex="1" parent="1">
          <mxGeometry x="52" y="557" width="888" height="20" as="geometry" />
        </mxCell>
        <mxCell id="lu0rfaTe1N00JWsHDoSa-5" value="Kubernetes (Docker Desktop)" style="rounded=0;whiteSpace=wrap;html=1;fontColor=#ffffff;fillColor=#007FFF;" vertex="1" parent="1">
          <mxGeometry x="52" y="537" width="888" height="20" as="geometry" />
        </mxCell>
        <mxCell id="lu0rfaTe1N00JWsHDoSa-19" value="" style="rounded=0;whiteSpace=wrap;html=1;" vertex="1" parent="1">
          <mxGeometry x="76" y="177" width="840" height="355" as="geometry" />
        </mxCell>
        <mxCell id="lu0rfaTe1N00JWsHDoSa-64" style="edgeStyle=orthogonalEdgeStyle;rounded=0;orthogonalLoop=1;jettySize=auto;html=1;entryX=0;entryY=0.5;entryDx=0;entryDy=0;fillColor=#d80073;strokeColor=#A50040;strokeWidth=2;" edge="1" parent="1" source="lu0rfaTe1N00JWsHDoSa-20" target="lu0rfaTe1N00JWsHDoSa-25">
          <mxGeometry relative="1" as="geometry" />
        </mxCell>
        <mxCell id="lu0rfaTe1N00JWsHDoSa-66" style="edgeStyle=orthogonalEdgeStyle;rounded=0;orthogonalLoop=1;jettySize=auto;html=1;entryX=0;entryY=0.5;entryDx=0;entryDy=0;fillColor=#d80073;strokeColor=#A50040;strokeWidth=2;" edge="1" parent="1" source="lu0rfaTe1N00JWsHDoSa-20" target="lu0rfaTe1N00JWsHDoSa-31">
          <mxGeometry relative="1" as="geometry" />
        </mxCell>
        <mxCell id="lu0rfaTe1N00JWsHDoSa-20" value="Ingress Nginx Controller" style="rounded=0;whiteSpace=wrap;html=1;fontColor=#FFFFFF;fillColor=#4D4D4D;" vertex="1" parent="1">
          <mxGeometry x="230" y="341.15" width="110" height="34" as="geometry" />
        </mxCell>
        <mxCell id="lu0rfaTe1N00JWsHDoSa-21" value="Pod" style="text;html=1;strokeColor=none;fillColor=none;align=center;verticalAlign=middle;whiteSpace=wrap;rounded=0;" vertex="1" parent="1">
          <mxGeometry x="225" y="318.15" width="120" height="20" as="geometry" />
        </mxCell>
        <mxCell id="lu0rfaTe1N00JWsHDoSa-28" value="1433" style="rounded=0;whiteSpace=wrap;html=1;strokeColor=none;fontColor=#FFFFFF;fillColor=#004C99;" vertex="1" parent="1">
          <mxGeometry x="625" y="270" width="40" height="20" as="geometry" />
        </mxCell>
        <mxCell id="lu0rfaTe1N00JWsHDoSa-33" value="80" style="rounded=0;whiteSpace=wrap;html=1;fontColor=#FFFFFF;fillColor=#004C99;" vertex="1" parent="1">
          <mxGeometry x="230" y="379.15" width="40" height="20" as="geometry" />
        </mxCell>
        <mxCell id="lu0rfaTe1N00JWsHDoSa-52" value="" style="rounded=0;whiteSpace=wrap;html=1;" vertex="1" parent="1">
          <mxGeometry x="30" y="318.15" width="120" height="87" as="geometry" />
        </mxCell>
        <mxCell id="lu0rfaTe1N00JWsHDoSa-53" value="Ingress Nginx Load Balancer" style="rounded=0;whiteSpace=wrap;html=1;fontColor=#FFFFFF;fillColor=#CC0066;" vertex="1" parent="1">
          <mxGeometry x="35" y="341.15" width="110" height="34" as="geometry" />
        </mxCell>
        <mxCell id="lu0rfaTe1N00JWsHDoSa-54" value="Pod" style="text;html=1;strokeColor=none;fillColor=none;align=center;verticalAlign=middle;whiteSpace=wrap;rounded=0;" vertex="1" parent="1">
          <mxGeometry x="30" y="318.15" width="120" height="20" as="geometry" />
        </mxCell>
        <mxCell id="lu0rfaTe1N00JWsHDoSa-55" value="80" style="rounded=0;whiteSpace=wrap;html=1;fontColor=#FFFFFF;fillColor=#660033;" vertex="1" parent="1">
          <mxGeometry x="35" y="379.15" width="40" height="20" as="geometry" />
        </mxCell>
        <mxCell id="lu0rfaTe1N00JWsHDoSa-57" value="" style="endArrow=classic;startArrow=classic;html=1;rounded=0;fillColor=#d80073;strokeColor=#A50040;strokeWidth=2;" edge="1" parent="1" target="lu0rfaTe1N00JWsHDoSa-41">
          <mxGeometry width="50" height="50" relative="1" as="geometry">
            <mxPoint x="730" y="337" as="sourcePoint" />
            <mxPoint x="770" y="337" as="targetPoint" />
          </mxGeometry>
        </mxCell>
        <mxCell id="lu0rfaTe1N00JWsHDoSa-58" value="" style="endArrow=classic;startArrow=classic;html=1;rounded=0;fillColor=#d80073;strokeColor=#A50040;strokeWidth=2;" edge="1" parent="1">
          <mxGeometry width="50" height="50" relative="1" as="geometry">
            <mxPoint x="580" y="341.15" as="sourcePoint" />
            <mxPoint x="625" y="341.15" as="targetPoint" />
          </mxGeometry>
        </mxCell>
        <mxCell id="lu0rfaTe1N00JWsHDoSa-61" value="" style="endArrow=classic;startArrow=classic;html=1;rounded=0;fillColor=#d80073;strokeColor=#A50040;strokeWidth=2;" edge="1" parent="1">
          <mxGeometry width="50" height="50" relative="1" as="geometry">
            <mxPoint x="600" y="515" as="sourcePoint" />
            <mxPoint x="600" y="345" as="targetPoint" />
          </mxGeometry>
        </mxCell>
        <mxCell id="lu0rfaTe1N00JWsHDoSa-67" value="/main" style="text;html=1;align=center;verticalAlign=middle;resizable=0;points=[];autosize=1;strokeColor=none;fillColor=none;fontStyle=1;fontColor=#99004D;" vertex="1" parent="1">
          <mxGeometry x="400" y="255" width="50" height="30" as="geometry" />
        </mxCell>
        <mxCell id="lu0rfaTe1N00JWsHDoSa-68" value="/admin" style="text;html=1;align=center;verticalAlign=middle;resizable=0;points=[];autosize=1;strokeColor=none;fillColor=none;fontStyle=1;fontColor=#99004D;" vertex="1" parent="1">
          <mxGeometry x="400" y="457" width="60" height="30" as="geometry" />
        </mxCell>
        <mxCell id="lu0rfaTe1N00JWsHDoSa-69" value="" style="endArrow=classic;html=1;rounded=0;entryX=0;entryY=0.5;entryDx=0;entryDy=0;fillColor=#d80073;strokeColor=#A50040;strokeWidth=2;" edge="1" parent="1" target="lu0rfaTe1N00JWsHDoSa-55">
          <mxGeometry width="50" height="50" relative="1" as="geometry">
            <mxPoint y="389" as="sourcePoint" />
            <mxPoint x="330" y="377" as="targetPoint" />
          </mxGeometry>
        </mxCell>
        <mxCell id="lu0rfaTe1N00JWsHDoSa-70" value="" style="endArrow=classic;startArrow=classic;html=1;rounded=0;exitX=1;exitY=0.5;exitDx=0;exitDy=0;entryX=0;entryY=0.5;entryDx=0;entryDy=0;fillColor=#d80073;strokeColor=#A50040;strokeWidth=2;" edge="1" parent="1" source="lu0rfaTe1N00JWsHDoSa-55" target="lu0rfaTe1N00JWsHDoSa-33">
          <mxGeometry width="50" height="50" relative="1" as="geometry">
            <mxPoint x="280" y="427" as="sourcePoint" />
            <mxPoint x="330" y="377" as="targetPoint" />
          </mxGeometry>
        </mxCell>
        <mxCell id="lu0rfaTe1N00JWsHDoSa-72" value="" style="endArrow=classic;startArrow=classic;html=1;rounded=0;entryX=0.5;entryY=1;entryDx=0;entryDy=0;exitX=0.5;exitY=0;exitDx=0;exitDy=0;strokeWidth=2;" edge="1" parent="1" source="lu0rfaTe1N00JWsHDoSa-6" target="lu0rfaTe1N00JWsHDoSa-11">
          <mxGeometry width="50" height="50" relative="1" as="geometry">
            <mxPoint x="280" y="427" as="sourcePoint" />
            <mxPoint x="330" y="377" as="targetPoint" />
            <Array as="points">
              <mxPoint x="835" y="377" />
              <mxPoint x="750" y="377" />
              <mxPoint x="750" y="307" />
              <mxPoint x="680" y="307" />
            </Array>
          </mxGeometry>
        </mxCell>
        <mxCell id="lu0rfaTe1N00JWsHDoSa-75" style="edgeStyle=orthogonalEdgeStyle;rounded=0;orthogonalLoop=1;jettySize=auto;html=1;strokeWidth=2;" edge="1" parent="1" source="lu0rfaTe1N00JWsHDoSa-6" target="lu0rfaTe1N00JWsHDoSa-2">
          <mxGeometry relative="1" as="geometry">
            <Array as="points">
              <mxPoint x="835" y="567" />
              <mxPoint x="835" y="567" />
            </Array>
          </mxGeometry>
        </mxCell>
        <mxCell id="lu0rfaTe1N00JWsHDoSa-6" value="Persistent&lt;br&gt;Voume Claim" style="rounded=0;whiteSpace=wrap;html=1;fontColor=#FFFFFF;fillColor=#4D4D4D;" vertex="1" parent="1">
          <mxGeometry x="790" y="405.15" width="90" height="36.3" as="geometry" />
        </mxCell>
        <mxCell id="lu0rfaTe1N00JWsHDoSa-7" value="" style="rounded=0;whiteSpace=wrap;html=1;" vertex="1" parent="1">
          <mxGeometry x="470" y="207" width="120" height="90" as="geometry" />
        </mxCell>
        <mxCell id="lu0rfaTe1N00JWsHDoSa-8" value="MainService Container" style="rounded=0;whiteSpace=wrap;html=1;fillColor=#0066CC;gradientColor=none;strokeColor=none;fontColor=#FFFFFF;" vertex="1" parent="1">
          <mxGeometry x="475" y="230" width="110" height="37" as="geometry" />
        </mxCell>
        <mxCell id="lu0rfaTe1N00JWsHDoSa-9" value="Pod" style="text;html=1;strokeColor=none;fillColor=none;align=center;verticalAlign=middle;whiteSpace=wrap;rounded=0;" vertex="1" parent="1">
          <mxGeometry x="470" y="207" width="120" height="20" as="geometry" />
        </mxCell>
        <mxCell id="lu0rfaTe1N00JWsHDoSa-10" value="" style="rounded=0;whiteSpace=wrap;html=1;" vertex="1" parent="1">
          <mxGeometry x="620" y="207" width="120" height="90" as="geometry" />
        </mxCell>
        <mxCell id="lu0rfaTe1N00JWsHDoSa-11" value="db-main SQL Server Container" style="rounded=0;whiteSpace=wrap;html=1;fillColor=#009900;gradientColor=none;strokeColor=none;fontColor=#FFFFFF;" vertex="1" parent="1">
          <mxGeometry x="625" y="230" width="110" height="37" as="geometry" />
        </mxCell>
        <mxCell id="lu0rfaTe1N00JWsHDoSa-12" value="Pod" style="text;html=1;strokeColor=none;fillColor=none;align=center;verticalAlign=middle;whiteSpace=wrap;rounded=0;" vertex="1" parent="1">
          <mxGeometry x="620" y="207" width="120" height="20" as="geometry" />
        </mxCell>
        <mxCell id="lu0rfaTe1N00JWsHDoSa-16" value="" style="rounded=0;whiteSpace=wrap;html=1;" vertex="1" parent="1">
          <mxGeometry x="470" y="385.15" width="120" height="91.85" as="geometry" />
        </mxCell>
        <mxCell id="lu0rfaTe1N00JWsHDoSa-17" value="AdminService Container" style="rounded=0;whiteSpace=wrap;html=1;fontColor=#FFFFFF;fillColor=#0066CC;" vertex="1" parent="1">
          <mxGeometry x="475" y="408.15" width="110" height="38.85" as="geometry" />
        </mxCell>
        <mxCell id="lu0rfaTe1N00JWsHDoSa-18" value="Pod" style="text;html=1;strokeColor=none;fillColor=none;align=center;verticalAlign=middle;whiteSpace=wrap;rounded=0;" vertex="1" parent="1">
          <mxGeometry x="470" y="385.15" width="120" height="20" as="geometry" />
        </mxCell>
        <mxCell id="lu0rfaTe1N00JWsHDoSa-22" value="" style="rounded=0;whiteSpace=wrap;html=1;" vertex="1" parent="1">
          <mxGeometry x="620" y="385.15" width="120" height="90" as="geometry" />
        </mxCell>
        <mxCell id="lu0rfaTe1N00JWsHDoSa-23" value="MailService&lt;br&gt;Container" style="rounded=0;whiteSpace=wrap;html=1;fontColor=#FFFFFF;fillColor=#0066CC;" vertex="1" parent="1">
          <mxGeometry x="625" y="408.15" width="110" height="38.85" as="geometry" />
        </mxCell>
        <mxCell id="lu0rfaTe1N00JWsHDoSa-24" value="Pod" style="text;html=1;strokeColor=none;fillColor=none;align=center;verticalAlign=middle;whiteSpace=wrap;rounded=0;" vertex="1" parent="1">
          <mxGeometry x="620" y="385.15" width="120" height="20" as="geometry" />
        </mxCell>
        <mxCell id="lu0rfaTe1N00JWsHDoSa-25" value="80" style="rounded=0;whiteSpace=wrap;html=1;fontColor=#ffffff;strokeColor=none;fillColor=#004C99;" vertex="1" parent="1">
          <mxGeometry x="475" y="270" width="40" height="20" as="geometry" />
        </mxCell>
        <mxCell id="lu0rfaTe1N00JWsHDoSa-31" value="80" style="rounded=0;whiteSpace=wrap;html=1;fontColor=#FFFFFF;fillColor=#004C99;" vertex="1" parent="1">
          <mxGeometry x="475" y="450.15" width="40" height="20" as="geometry" />
        </mxCell>
        <mxCell id="lu0rfaTe1N00JWsHDoSa-32" value="80" style="rounded=0;whiteSpace=wrap;html=1;fontColor=#FFFFFF;fillColor=#004C99;" vertex="1" parent="1">
          <mxGeometry x="625" y="450.15" width="40" height="20" as="geometry" />
        </mxCell>
        <mxCell id="lu0rfaTe1N00JWsHDoSa-34" value="Cluster IP" style="rounded=0;whiteSpace=wrap;html=1;fontColor=#FFFFFF;fillColor=#CC0066;" vertex="1" parent="1">
          <mxGeometry x="475" y="328.85" width="105" height="20" as="geometry" />
        </mxCell>
        <mxCell id="lu0rfaTe1N00JWsHDoSa-36" value="80" style="rounded=0;whiteSpace=wrap;html=1;fontColor=#FFFFFF;fillColor=#99004D;" vertex="1" parent="1">
          <mxGeometry x="475" y="308.85" width="40" height="20" as="geometry" />
        </mxCell>
        <mxCell id="lu0rfaTe1N00JWsHDoSa-37" value="Cluster IP" style="rounded=0;whiteSpace=wrap;html=1;fontColor=#FFFFFF;fillColor=#CC0066;" vertex="1" parent="1">
          <mxGeometry x="625" y="328.85" width="105" height="20" as="geometry" />
        </mxCell>
        <mxCell id="lu0rfaTe1N00JWsHDoSa-38" value="1433" style="rounded=0;whiteSpace=wrap;html=1;fontColor=#FFFFFF;fillColor=#99004D;" vertex="1" parent="1">
          <mxGeometry x="625" y="308.85" width="40" height="20" as="geometry" />
        </mxCell>
        <mxCell id="lu0rfaTe1N00JWsHDoSa-41" value="Cluster IP" style="rounded=0;whiteSpace=wrap;html=1;fontColor=#FFFFFF;fillColor=#CC0066;" vertex="1" parent="1">
          <mxGeometry x="775" y="327" width="105" height="20" as="geometry" />
        </mxCell>
        <mxCell id="lu0rfaTe1N00JWsHDoSa-44" value="5672" style="rounded=0;whiteSpace=wrap;html=1;fontColor=#FFFFFF;fillColor=#99004D;" vertex="1" parent="1">
          <mxGeometry x="775" y="307" width="40" height="20" as="geometry" />
        </mxCell>
        <mxCell id="lu0rfaTe1N00JWsHDoSa-45" value="15672" style="rounded=0;whiteSpace=wrap;html=1;fontColor=#FFFFFF;fillColor=#99004D;" vertex="1" parent="1">
          <mxGeometry x="840" y="307" width="40" height="20" as="geometry" />
        </mxCell>
        <mxCell id="lu0rfaTe1N00JWsHDoSa-46" value="Cluster IP" style="rounded=0;whiteSpace=wrap;html=1;fontColor=#FFFFFF;fillColor=#CC0066;" vertex="1" parent="1">
          <mxGeometry x="476" y="507" width="105" height="20" as="geometry" />
        </mxCell>
        <mxCell id="lu0rfaTe1N00JWsHDoSa-47" value="80" style="rounded=0;whiteSpace=wrap;html=1;fontColor=#FFFFFF;fillColor=#99004D;" vertex="1" parent="1">
          <mxGeometry x="476" y="487" width="40" height="20" as="geometry" />
        </mxCell>
        <mxCell id="lu0rfaTe1N00JWsHDoSa-48" value="Cluster IP" style="rounded=0;whiteSpace=wrap;html=1;fontColor=#FFFFFF;fillColor=#CC0066;" vertex="1" parent="1">
          <mxGeometry x="626" y="507" width="105" height="20" as="geometry" />
        </mxCell>
        <mxCell id="lu0rfaTe1N00JWsHDoSa-49" value="80" style="rounded=0;whiteSpace=wrap;html=1;fontColor=#FFFFFF;fillColor=#99004D;" vertex="1" parent="1">
          <mxGeometry x="626" y="487" width="40" height="20" as="geometry" />
        </mxCell>
        <mxCell id="lu0rfaTe1N00JWsHDoSa-59" value="" style="endArrow=classic;startArrow=classic;html=1;rounded=0;exitX=1;exitY=0.5;exitDx=0;exitDy=0;entryX=0;entryY=0.5;entryDx=0;entryDy=0;fillColor=#d80073;strokeColor=#A50040;strokeWidth=2;" edge="1" parent="1">
          <mxGeometry width="50" height="50" relative="1" as="geometry">
            <mxPoint x="582" y="517" as="sourcePoint" />
            <mxPoint x="627" y="517" as="targetPoint" />
            <Array as="points">
              <mxPoint x="601" y="517" />
            </Array>
          </mxGeometry>
        </mxCell>
        <mxCell id="lu0rfaTe1N00JWsHDoSa-13" value="" style="rounded=0;whiteSpace=wrap;html=1;" vertex="1" parent="1">
          <mxGeometry x="770" y="207" width="120" height="90" as="geometry" />
        </mxCell>
        <mxCell id="lu0rfaTe1N00JWsHDoSa-14" value="RabbitMQ Container" style="rounded=0;whiteSpace=wrap;html=1;fillColor=#CC6600;strokeColor=none;gradientColor=none;fontColor=#FFFFFF;" vertex="1" parent="1">
          <mxGeometry x="775" y="230" width="110" height="37" as="geometry" />
        </mxCell>
        <mxCell id="lu0rfaTe1N00JWsHDoSa-15" value="Pod" style="text;html=1;strokeColor=none;fillColor=none;align=center;verticalAlign=middle;whiteSpace=wrap;rounded=0;" vertex="1" parent="1">
          <mxGeometry x="770" y="207" width="120" height="20" as="geometry" />
        </mxCell>
        <mxCell id="lu0rfaTe1N00JWsHDoSa-29" value="5672" style="rounded=0;whiteSpace=wrap;html=1;fontColor=#FFFFFF;fillColor=#004C99;" vertex="1" parent="1">
          <mxGeometry x="775" y="270" width="40" height="20" as="geometry" />
        </mxCell>
        <mxCell id="lu0rfaTe1N00JWsHDoSa-30" value="15672" style="rounded=0;whiteSpace=wrap;html=1;fontColor=#FFFFFF;fillColor=#004C99;" vertex="1" parent="1">
          <mxGeometry x="845" y="270" width="40" height="20" as="geometry" />
        </mxCell>
        <mxCell id="lu0rfaTe1N00JWsHDoSa-77" value="&lt;b&gt;Cluster&lt;/b&gt;" style="text;html=1;strokeColor=none;fillColor=none;align=center;verticalAlign=middle;whiteSpace=wrap;rounded=0;" vertex="1" parent="1">
          <mxGeometry x="52" y="147" width="888" height="30" as="geometry" />
        </mxCell>
        <mxCell id="lu0rfaTe1N00JWsHDoSa-78" value="&lt;b&gt;Node&lt;/b&gt;" style="text;html=1;strokeColor=none;fillColor=none;align=center;verticalAlign=middle;whiteSpace=wrap;rounded=0;" vertex="1" parent="1">
          <mxGeometry x="75" y="177" width="835" height="30" as="geometry" />
        </mxCell>
        <mxCell id="lu0rfaTe1N00JWsHDoSa-79" value="1433" style="rounded=0;whiteSpace=wrap;html=1;fontColor=#FFFFFF;fillColor=#004C99;" vertex="1" parent="1">
          <mxGeometry x="626" y="270" width="40" height="20" as="geometry" />
        </mxCell>
      </root>
    </mxGraphModel>
  </diagram>
  <diagram id="fgNKc61lIMpmfLIZFOlF" name="Trang-5">
    <mxGraphModel dx="989" dy="539" grid="0" gridSize="10" guides="1" tooltips="1" connect="1" arrows="1" fold="1" page="1" pageScale="1" pageWidth="850" pageHeight="1100" math="0" shadow="0">
      <root>
        <mxCell id="0" />
        <mxCell id="1" parent="0" />
        <mxCell id="Reqid7QXedQCbUzlUa9I-54" value="" style="group;movable=0;resizable=0;rotatable=0;deletable=0;editable=0;locked=1;connectable=0;" parent="1" vertex="1" connectable="0">
          <mxGeometry x="171" y="334" width="482" height="336" as="geometry" />
        </mxCell>
        <mxCell id="Reqid7QXedQCbUzlUa9I-15" value="Cây thư mục" style="swimlane;startSize=20;horizontal=1;containerType=tree;newEdgeStyle={&quot;edgeStyle&quot;:&quot;elbowEdgeStyle&quot;,&quot;startArrow&quot;:&quot;none&quot;,&quot;endArrow&quot;:&quot;none&quot;};container=0;movable=0;resizable=0;rotatable=0;deletable=0;editable=0;locked=1;connectable=0;" parent="Reqid7QXedQCbUzlUa9I-54" vertex="1">
          <mxGeometry x="5" y="1.81" width="429" height="270.97" as="geometry" />
        </mxCell>
        <mxCell id="Reqid7QXedQCbUzlUa9I-30" value="AdminService" style="whiteSpace=wrap;html=1;align=center;verticalAlign=middle;treeFolding=1;treeMoving=1;newEdgeStyle={&quot;edgeStyle&quot;:&quot;elbowEdgeStyle&quot;,&quot;startArrow&quot;:&quot;none&quot;,&quot;endArrow&quot;:&quot;none&quot;};movable=0;resizable=0;rotatable=0;deletable=0;editable=0;locked=1;connectable=0;" parent="Reqid7QXedQCbUzlUa9I-15" vertex="1">
          <mxGeometry x="320" y="188.3274193548387" width="88.63" height="24.387096774193544" as="geometry" />
        </mxCell>
        <mxCell id="Reqid7QXedQCbUzlUa9I-32" value="K8S" style="whiteSpace=wrap;html=1;align=center;verticalAlign=middle;treeFolding=1;treeMoving=1;newEdgeStyle={&quot;edgeStyle&quot;:&quot;elbowEdgeStyle&quot;,&quot;startArrow&quot;:&quot;none&quot;,&quot;endArrow&quot;:&quot;none&quot;};movable=0;resizable=0;rotatable=0;deletable=0;editable=0;locked=1;connectable=0;" parent="Reqid7QXedQCbUzlUa9I-15" vertex="1">
          <mxGeometry x="216" y="188.3274193548387" width="89" height="23.483870967741932" as="geometry" />
        </mxCell>
        <mxCell id="Reqid7QXedQCbUzlUa9I-55" value="MailService.sln" style="whiteSpace=wrap;html=1;rounded=1;arcSize=50;align=center;verticalAlign=middle;strokeWidth=1;autosize=1;spacing=4;treeFolding=1;treeMoving=1;newEdgeStyle={&quot;edgeStyle&quot;:&quot;entityRelationEdgeStyle&quot;,&quot;startArrow&quot;:&quot;none&quot;,&quot;endArrow&quot;:&quot;none&quot;,&quot;segment&quot;:10,&quot;curved&quot;:1,&quot;sourcePerimeterSpacing&quot;:0,&quot;targetPerimeterSpacing&quot;:0};movable=0;resizable=0;rotatable=0;deletable=0;editable=0;locked=1;connectable=0;" parent="Reqid7QXedQCbUzlUa9I-15" vertex="1">
          <mxGeometry x="133" y="241.6129032258064" width="87" height="16.25806451612903" as="geometry" />
        </mxCell>
        <mxCell id="Reqid7QXedQCbUzlUa9I-60" value="" style="edgeStyle=entityRelationEdgeStyle;startArrow=none;endArrow=none;segment=10;curved=1;sourcePerimeterSpacing=0;targetPerimeterSpacing=0;rounded=0;entryX=0.5;entryY=0;entryDx=0;entryDy=0;movable=0;resizable=0;rotatable=0;deletable=0;editable=0;locked=1;connectable=0;" parent="Reqid7QXedQCbUzlUa9I-15" target="Reqid7QXedQCbUzlUa9I-62" edge="1">
          <mxGeometry relative="1" as="geometry">
            <mxPoint x="386" y="244.32741935483867" as="sourcePoint" />
            <Array as="points">
              <mxPoint x="263.0554156171285" y="301.2306451612902" />
              <mxPoint x="282.8816120906801" y="296.7145161290322" />
            </Array>
            <mxPoint x="383.1788413098237" y="289.4887096774193" as="targetPoint" />
          </mxGeometry>
        </mxCell>
        <mxCell id="Reqid7QXedQCbUzlUa9I-62" value="AdminService.sln" style="whiteSpace=wrap;html=1;rounded=1;arcSize=50;align=center;verticalAlign=middle;strokeWidth=1;autosize=1;spacing=4;treeFolding=1;treeMoving=1;newEdgeStyle={&quot;edgeStyle&quot;:&quot;entityRelationEdgeStyle&quot;,&quot;startArrow&quot;:&quot;none&quot;,&quot;endArrow&quot;:&quot;none&quot;,&quot;segment&quot;:10,&quot;curved&quot;:1,&quot;sourcePerimeterSpacing&quot;:0,&quot;targetPerimeterSpacing&quot;:0};movable=0;resizable=0;rotatable=0;deletable=0;editable=0;locked=1;connectable=0;" parent="Reqid7QXedQCbUzlUa9I-15" vertex="1" collapsed="1">
          <mxGeometry x="320" y="240.2629032258064" width="98" height="16.25806451612903" as="geometry" />
        </mxCell>
        <mxCell id="Reqid7QXedQCbUzlUa9I-47" value="Dockerfile" style="whiteSpace=wrap;html=1;rounded=1;arcSize=50;align=center;verticalAlign=middle;strokeWidth=1;autosize=1;spacing=4;treeFolding=1;treeMoving=1;newEdgeStyle={&quot;edgeStyle&quot;:&quot;entityRelationEdgeStyle&quot;,&quot;startArrow&quot;:&quot;none&quot;,&quot;endArrow&quot;:&quot;none&quot;,&quot;segment&quot;:10,&quot;curved&quot;:1,&quot;sourcePerimeterSpacing&quot;:0,&quot;targetPerimeterSpacing&quot;:0};movable=0;resizable=0;rotatable=0;deletable=0;editable=0;locked=1;connectable=0;" parent="Reqid7QXedQCbUzlUa9I-15" vertex="1">
          <mxGeometry x="11" y="222.19354838709674" width="64" height="15.354838709677416" as="geometry" />
        </mxCell>
        <mxCell id="Reqid7QXedQCbUzlUa9I-52" value="DoAnTotNghiep.sln" style="whiteSpace=wrap;html=1;rounded=1;arcSize=50;align=center;verticalAlign=middle;strokeWidth=1;autosize=1;spacing=4;treeFolding=1;treeMoving=1;newEdgeStyle={&quot;edgeStyle&quot;:&quot;entityRelationEdgeStyle&quot;,&quot;startArrow&quot;:&quot;none&quot;,&quot;endArrow&quot;:&quot;none&quot;,&quot;segment&quot;:10,&quot;curved&quot;:1,&quot;sourcePerimeterSpacing&quot;:0,&quot;targetPerimeterSpacing&quot;:0};movable=0;resizable=0;rotatable=0;deletable=0;editable=0;locked=1;connectable=0;" parent="Reqid7QXedQCbUzlUa9I-15" vertex="1" collapsed="1">
          <mxGeometry x="7.829999999999998" y="241.6129032258064" width="108" height="14.90322580645161" as="geometry" />
        </mxCell>
        <mxCell id="Reqid7QXedQCbUzlUa9I-19" value="AngularFrontEnd" style="whiteSpace=wrap;html=1;align=center;verticalAlign=middle;treeFolding=1;treeMoving=1;newEdgeStyle={&quot;edgeStyle&quot;:&quot;elbowEdgeStyle&quot;,&quot;startArrow&quot;:&quot;none&quot;,&quot;endArrow&quot;:&quot;none&quot;};movable=0;resizable=0;rotatable=0;deletable=0;editable=0;locked=1;connectable=0;" parent="Reqid7QXedQCbUzlUa9I-15" vertex="1">
          <mxGeometry x="11" y="105.67741935483869" width="116.62" height="20.774193548387093" as="geometry" />
        </mxCell>
        <mxCell id="Reqid7QXedQCbUzlUa9I-20" value="DotNetBackEnd" style="whiteSpace=wrap;html=1;align=center;verticalAlign=middle;treeFolding=1;treeMoving=1;newEdgeStyle={&quot;edgeStyle&quot;:&quot;elbowEdgeStyle&quot;,&quot;startArrow&quot;:&quot;none&quot;,&quot;endArrow&quot;:&quot;none&quot;};movable=0;resizable=0;rotatable=0;deletable=0;editable=0;locked=1;connectable=0;" parent="Reqid7QXedQCbUzlUa9I-15" vertex="1">
          <mxGeometry x="157.11" y="105.67741935483869" width="116.62" height="20.774193548387093" as="geometry" />
        </mxCell>
        <mxCell id="Reqid7QXedQCbUzlUa9I-29" value="" style="edgeStyle=elbowEdgeStyle;elbow=vertical;sourcePerimeterSpacing=0;targetPerimeterSpacing=0;startArrow=none;endArrow=none;rounded=0;curved=0;movable=0;resizable=0;rotatable=0;deletable=0;editable=0;locked=1;connectable=0;" parent="Reqid7QXedQCbUzlUa9I-15" source="Reqid7QXedQCbUzlUa9I-20" target="Reqid7QXedQCbUzlUa9I-30" edge="1">
          <mxGeometry relative="1" as="geometry">
            <mxPoint x="481.32493702770785" y="364.90322580645153" as="sourcePoint" />
          </mxGeometry>
        </mxCell>
        <mxCell id="Reqid7QXedQCbUzlUa9I-31" value="" style="edgeStyle=elbowEdgeStyle;elbow=vertical;sourcePerimeterSpacing=0;targetPerimeterSpacing=0;startArrow=none;endArrow=none;rounded=0;curved=0;movable=0;resizable=0;rotatable=0;deletable=0;editable=0;locked=1;connectable=0;" parent="Reqid7QXedQCbUzlUa9I-15" source="Reqid7QXedQCbUzlUa9I-20" target="Reqid7QXedQCbUzlUa9I-32" edge="1">
          <mxGeometry relative="1" as="geometry">
            <mxPoint x="492.98740554156177" y="373.0322580645161" as="sourcePoint" />
          </mxGeometry>
        </mxCell>
        <mxCell id="Reqid7QXedQCbUzlUa9I-87" value="Dockerfile" style="whiteSpace=wrap;html=1;rounded=1;arcSize=50;align=center;verticalAlign=middle;strokeWidth=1;autosize=1;spacing=4;treeFolding=1;treeMoving=1;newEdgeStyle={&quot;edgeStyle&quot;:&quot;entityRelationEdgeStyle&quot;,&quot;startArrow&quot;:&quot;none&quot;,&quot;endArrow&quot;:&quot;none&quot;,&quot;segment&quot;:10,&quot;curved&quot;:1,&quot;sourcePerimeterSpacing&quot;:0,&quot;targetPerimeterSpacing&quot;:0};movable=0;resizable=0;rotatable=0;deletable=0;editable=0;locked=1;connectable=0;" parent="Reqid7QXedQCbUzlUa9I-15" vertex="1">
          <mxGeometry x="320" y="220.84354838709675" width="64.92" height="15.354838709677416" as="geometry" />
        </mxCell>
        <mxCell id="Reqid7QXedQCbUzlUa9I-23" style="edgeStyle=elbowEdgeStyle;rounded=0;orthogonalLoop=1;jettySize=auto;html=1;startArrow=none;endArrow=none;exitX=0.5;exitY=1;exitDx=0;exitDy=0;entryX=0.5;entryY=0;entryDx=0;entryDy=0;movable=0;resizable=0;rotatable=0;deletable=0;editable=0;locked=1;connectable=0;" parent="Reqid7QXedQCbUzlUa9I-54" target="Reqid7QXedQCbUzlUa9I-21" edge="1">
          <mxGeometry relative="1" as="geometry">
            <mxPoint x="221.5869017632242" y="93.93548387096774" as="sourcePoint" />
            <mxPoint x="367.367758186398" y="125.54838709677419" as="targetPoint" />
            <Array as="points">
              <mxPoint x="366.20151133501264" y="102.06451612903226" />
            </Array>
          </mxGeometry>
        </mxCell>
        <UserObject label="DoAnTotNghiep" treeRoot="1" id="Reqid7QXedQCbUzlUa9I-18">
          <mxCell style="whiteSpace=wrap;html=1;align=center;treeFolding=1;treeMoving=1;newEdgeStyle={&quot;edgeStyle&quot;:&quot;elbowEdgeStyle&quot;,&quot;startArrow&quot;:&quot;none&quot;,&quot;endArrow&quot;:&quot;none&quot;};movable=0;resizable=0;rotatable=0;deletable=0;editable=0;locked=1;connectable=0;" parent="Reqid7QXedQCbUzlUa9I-54" vertex="1">
            <mxGeometry x="150.45" y="59.61290322580645" width="139.95" height="18.064516129032256" as="geometry" />
          </mxCell>
        </UserObject>
        <mxCell id="Reqid7QXedQCbUzlUa9I-16" value="" style="edgeStyle=elbowEdgeStyle;elbow=vertical;sourcePerimeterSpacing=0;targetPerimeterSpacing=0;startArrow=none;endArrow=none;rounded=0;curved=0;movable=0;resizable=0;rotatable=0;deletable=0;editable=0;locked=1;connectable=0;" parent="Reqid7QXedQCbUzlUa9I-54" source="Reqid7QXedQCbUzlUa9I-18" target="Reqid7QXedQCbUzlUa9I-19" edge="1">
          <mxGeometry relative="1" as="geometry" />
        </mxCell>
        <mxCell id="Reqid7QXedQCbUzlUa9I-17" value="" style="edgeStyle=elbowEdgeStyle;elbow=vertical;sourcePerimeterSpacing=0;targetPerimeterSpacing=0;startArrow=none;endArrow=none;rounded=0;curved=0;movable=0;resizable=0;rotatable=0;deletable=0;editable=0;locked=1;connectable=0;" parent="Reqid7QXedQCbUzlUa9I-54" source="Reqid7QXedQCbUzlUa9I-18" target="Reqid7QXedQCbUzlUa9I-20" edge="1">
          <mxGeometry relative="1" as="geometry" />
        </mxCell>
        <mxCell id="Reqid7QXedQCbUzlUa9I-21" value="Documentation" style="whiteSpace=wrap;html=1;align=center;verticalAlign=middle;treeFolding=1;treeMoving=1;newEdgeStyle={&quot;edgeStyle&quot;:&quot;elbowEdgeStyle&quot;,&quot;startArrow&quot;:&quot;none&quot;,&quot;endArrow&quot;:&quot;none&quot;};movable=0;resizable=0;rotatable=0;deletable=0;editable=0;locked=1;connectable=0;" parent="Reqid7QXedQCbUzlUa9I-54" vertex="1">
          <mxGeometry x="307.89" y="109.29032258064515" width="116.62" height="19.870967741935484" as="geometry" />
        </mxCell>
        <mxCell id="Reqid7QXedQCbUzlUa9I-24" value="" style="edgeStyle=elbowEdgeStyle;elbow=vertical;sourcePerimeterSpacing=0;targetPerimeterSpacing=0;startArrow=none;endArrow=none;rounded=0;curved=0;movable=0;resizable=0;rotatable=0;deletable=0;editable=0;locked=1;connectable=0;" parent="Reqid7QXedQCbUzlUa9I-54" source="Reqid7QXedQCbUzlUa9I-20" target="Reqid7QXedQCbUzlUa9I-25" edge="1">
          <mxGeometry relative="1" as="geometry">
            <mxPoint x="488.6574307304786" y="336" as="sourcePoint" />
          </mxGeometry>
        </mxCell>
        <mxCell id="Reqid7QXedQCbUzlUa9I-25" value="MainService" style="whiteSpace=wrap;html=1;align=center;verticalAlign=middle;treeFolding=1;treeMoving=1;newEdgeStyle={&quot;edgeStyle&quot;:&quot;elbowEdgeStyle&quot;,&quot;startArrow&quot;:&quot;none&quot;,&quot;endArrow&quot;:&quot;none&quot;};movable=0;resizable=0;rotatable=0;deletable=0;editable=0;locked=1;connectable=0;" parent="Reqid7QXedQCbUzlUa9I-54" vertex="1">
          <mxGeometry x="12.83" y="189.6774193548387" width="87.47" height="25.29032258064516" as="geometry" />
        </mxCell>
        <mxCell id="Reqid7QXedQCbUzlUa9I-27" value="" style="edgeStyle=elbowEdgeStyle;elbow=vertical;sourcePerimeterSpacing=0;targetPerimeterSpacing=0;startArrow=none;endArrow=none;rounded=0;curved=0;movable=0;resizable=0;rotatable=0;deletable=0;editable=0;locked=1;connectable=0;" parent="Reqid7QXedQCbUzlUa9I-54" source="Reqid7QXedQCbUzlUa9I-20" target="Reqid7QXedQCbUzlUa9I-28" edge="1">
          <mxGeometry relative="1" as="geometry">
            <mxPoint x="486.32493702770785" y="366.7096774193548" as="sourcePoint" />
          </mxGeometry>
        </mxCell>
        <mxCell id="Reqid7QXedQCbUzlUa9I-28" value="Mail Service" style="whiteSpace=wrap;html=1;align=center;verticalAlign=middle;treeFolding=1;treeMoving=1;newEdgeStyle={&quot;edgeStyle&quot;:&quot;elbowEdgeStyle&quot;,&quot;startArrow&quot;:&quot;none&quot;,&quot;endArrow&quot;:&quot;none&quot;};movable=0;resizable=0;rotatable=0;deletable=0;editable=0;locked=1;connectable=0;" parent="Reqid7QXedQCbUzlUa9I-54" vertex="1">
          <mxGeometry x="113.13" y="189.6774193548387" width="94.47" height="25.29032258064516" as="geometry" />
        </mxCell>
        <mxCell id="Reqid7QXedQCbUzlUa9I-57" value="Dockerfile" style="whiteSpace=wrap;html=1;rounded=1;arcSize=50;align=center;verticalAlign=middle;strokeWidth=1;autosize=1;spacing=4;treeFolding=1;treeMoving=1;newEdgeStyle={&quot;edgeStyle&quot;:&quot;entityRelationEdgeStyle&quot;,&quot;startArrow&quot;:&quot;none&quot;,&quot;endArrow&quot;:&quot;none&quot;,&quot;segment&quot;:10,&quot;curved&quot;:1,&quot;sourcePerimeterSpacing&quot;:0,&quot;targetPerimeterSpacing&quot;:0};movable=0;resizable=0;rotatable=0;deletable=0;editable=0;locked=1;connectable=0;" parent="Reqid7QXedQCbUzlUa9I-54" vertex="1">
          <mxGeometry x="139" y="224" width="64.92" height="15.354838709677418" as="geometry" />
        </mxCell>
      </root>
    </mxGraphModel>
  </diagram>
</mxfile>
